<?xml version="1.0" encoding="UTF-8" standalone="no"?>
<!-- Created with Inkscape (http://www.inkscape.org/) -->

<svg
   xmlns:dc="http://purl.org/dc/elements/1.1/"
   xmlns:cc="http://creativecommons.org/ns#"
   xmlns:rdf="http://www.w3.org/1999/02/22-rdf-syntax-ns#"
   xmlns:svg="http://www.w3.org/2000/svg"
   xmlns="http://www.w3.org/2000/svg"
   xmlns:sodipodi="http://sodipodi.sourceforge.net/DTD/sodipodi-0.dtd"
   xmlns:inkscape="http://www.inkscape.org/namespaces/inkscape"
   id="svg2985"
   version="1.1"
   inkscape:version="0.48.4 r9939"
   width="132.67625"
   height="218.985"
   xml:space="preserve"
   sodipodi:docname="main.pdf.ps.pdf"><metadata
     id="metadata2991"><rdf:RDF><cc:Work
         rdf:about=""><dc:format>image/svg+xml</dc:format><dc:type
           rdf:resource="http://purl.org/dc/dcmitype/StillImage" /><dc:title></dc:title></cc:Work></rdf:RDF></metadata><defs
     id="defs2989" /><sodipodi:namedview
     pagecolor="#ffffff"
     bordercolor="#666666"
     borderopacity="1"
     objecttolerance="10"
     gridtolerance="10"
     guidetolerance="10"
     inkscape:pageopacity="0"
     inkscape:pageshadow="2"
     inkscape:window-width="1366"
     inkscape:window-height="705"
     id="namedview2987"
     showgrid="false"
     fit-margin-top="0"
     fit-margin-left="0"
     fit-margin-right="0"
     fit-margin-bottom="0"
     inkscape:zoom="1.7938242"
     inkscape:cx="-95.830667"
     inkscape:cy="105.64231"
     inkscape:window-x="0"
     inkscape:window-y="23"
     inkscape:window-maximized="0"
     inkscape:current-layer="g2993" /><g
     id="g2993"
     inkscape:groupmode="layer"
     inkscape:label="main.pdf.ps"
     transform="matrix(1.25,0,0,-1.25,-151.1489,764.88277)"><path
       inkscape:connector-curvature="0"
       id="path2997"
       style="fill:#000000;fill-opacity:1;fill-rule:nonzero;stroke:none"
       d="m 269.273,777.655 c 0.141,0.89 -0.401,1.737 -1.485,1.964 0.932,0.294 1.692,1.053 1.832,1.911 0.152,0.889 -0.704,1.497 -1.747,1.497 -1.095,0 -2.028,-0.652 -2.17,-1.475 -0.053,-0.36 0.152,-0.566 0.467,-0.566 0.336,0 0.586,0.239 0.641,0.555 0.097,0.542 -0.413,0.542 -0.575,0.542 0.422,0.531 1.161,0.672 1.552,0.672 0.443,0 0.996,-0.238 0.834,-1.214 -0.022,-0.132 -0.141,-0.761 -0.509,-1.238 -0.413,-0.52 -0.782,-0.553 -1.054,-0.564 -0.096,-0.011 -0.357,-0.033 -0.432,-0.033 -0.088,-0.011 -0.164,-0.022 -0.186,-0.129 -0.021,-0.121 0.054,-0.121 0.239,-0.121 l 0.478,0 c 0.889,0 1.172,-0.737 0.998,-1.801 -0.25,-1.475 -1.053,-1.789 -1.529,-1.789 -0.468,0 -1.249,0.184 -1.521,0.823 0.369,-0.053 0.749,0.184 0.814,0.597 0.066,0.391 -0.195,0.608 -0.509,0.608 -0.261,0 -0.63,-0.152 -0.706,-0.63 -0.174,-0.986 0.717,-1.703 1.9,-1.703 1.323,0 2.484,0.987 2.668,2.094" /><path
       inkscape:connector-curvature="0"
       id="path2999"
       style="fill:#000000;fill-opacity:1;fill-rule:nonzero;stroke:none"
       d="m 271.581,776.375 c 0.055,0.314 -0.162,0.575 -0.478,0.575 -0.314,0 -0.619,-0.261 -0.672,-0.575 -0.054,-0.314 0.163,-0.575 0.477,-0.575 0.315,0 0.619,0.261 0.673,0.575" /><path
       inkscape:connector-curvature="0"
       id="path3001"
       style="fill:#000000;fill-opacity:1;fill-rule:nonzero;stroke:none"
       d="m 277.047,775.8 0.053,0.336 -0.347,0 c -0.976,0 -0.987,0.12 -0.922,0.522 l 1.021,6.086 c 0.042,0.261 0.042,0.283 -0.207,0.283 -0.792,-0.694 -1.747,-0.694 -2.095,-0.694 l -0.053,-0.338 c 0.217,0 0.856,0 1.475,0.283 l -0.944,-5.62 c -0.065,-0.391 -0.119,-0.522 -1.095,-0.522 l -0.349,0 -0.053,-0.336 c 0.391,0.033 1.335,0.033 1.769,0.033 0.433,0 1.378,0 1.747,-0.033" /><path
       inkscape:connector-curvature="0"
       id="path3003"
       style="fill:#000000;fill-opacity:1;fill-rule:nonzero;stroke:none"
       d="m 280.081,776.375 c 0.055,0.314 -0.162,0.575 -0.478,0.575 -0.314,0 -0.619,-0.261 -0.672,-0.575 -0.054,-0.314 0.163,-0.575 0.477,-0.575 0.315,0 0.619,0.261 0.673,0.575" /><path
       inkscape:connector-curvature="0"
       id="path3005"
       style="fill:#000000;fill-opacity:1;fill-rule:nonzero;stroke:none"
       d="m 294.18,775.8 0.054,0.336 -0.195,0 c -0.651,0 -0.792,0.077 -0.847,0.434 l -1.215,6.782 c -0.032,0.142 -0.043,0.217 -0.216,0.217 -0.175,0 -0.217,-0.064 -0.294,-0.217 l -3.331,-6.488 c -0.281,-0.555 -0.748,-0.717 -1.334,-0.728 l -0.055,-0.336 1.117,0.033 1.238,-0.033 0.054,0.336 c -0.542,0 -0.77,0.272 -0.715,0.553 0,0.033 0.031,0.142 0.042,0.164 l 0.739,1.42 2.68,0 0.303,-1.659 c 0,-0.044 0.011,-0.109 0,-0.151 -0.053,-0.327 -0.661,-0.327 -0.955,-0.327 l -0.055,-0.336 c 0.402,0.033 1.161,0.033 1.574,0.033 l 1.411,-0.033 z m -2.344,2.811 -2.441,0 1.8,3.527 0.641,-3.527" /><path
       inkscape:connector-curvature="0"
       id="path3007"
       style="fill:#000000;fill-opacity:1;fill-rule:nonzero;stroke:none"
       d="m 306.609,778.427 0.066,0.336 -1.336,-0.033 c -0.433,0 -1.356,0 -1.736,0.033 l -0.064,-0.336 0.347,0 c 0.977,0 0.998,-0.121 0.922,-0.522 l -0.108,-0.694 c -0.206,-1.216 -1.595,-1.314 -1.9,-1.314 -0.705,0 -2.798,0.381 -2.256,3.614 0.542,3.244 2.734,3.603 3.386,3.603 1.161,0 1.984,-0.976 1.942,-2.572 0,-0.153 -0.011,-0.184 0.141,-0.184 0.173,0 0.184,0.031 0.217,0.259 l 0.434,2.572 c 0.022,0.184 0.042,0.261 -0.076,0.261 -0.044,0 -0.088,0 -0.196,-0.131 l -0.683,-0.802 c -0.282,0.347 -0.771,0.933 -1.845,0.933 -2.019,0 -4.069,-1.714 -4.437,-3.939 -0.369,-2.225 1.073,-3.95 3.136,-3.95 0.792,0 1.714,0.283 2.19,0.922 0.099,-0.238 0.456,-0.672 0.575,-0.672 0.099,0 0.12,0.086 0.142,0.25 l 0.314,1.887 c 0.077,0.424 0.121,0.479 0.825,0.479" /><path
       inkscape:connector-curvature="0"
       id="path3009"
       style="fill:#000000;fill-opacity:1;fill-rule:nonzero;stroke:none"
       d="m 311.52,777.091 c 0.022,0.109 -0.065,0.131 -0.12,0.131 -0.097,0 -0.13,-0.066 -0.162,-0.153 -0.575,-1.117 -1.552,-1.117 -1.66,-1.117 -0.542,0 -0.923,0.326 -1.097,0.726 -0.237,0.522 -0.118,1.238 -0.053,1.628 l 3.027,0 c 0.239,0 0.272,0 0.304,0.228 0.185,1.074 -0.228,2.127 -1.584,2.127 -1.259,0 -2.442,-1.117 -2.67,-2.473 -0.249,-1.455 0.717,-2.507 1.964,-2.507 1.325,0 2.019,1.203 2.051,1.41 z m -0.478,1.443 -2.572,0 c 0.338,1.618 1.293,1.888 1.661,1.888 1.117,0 0.988,-1.464 0.911,-1.888" /><path
       inkscape:connector-curvature="0"
       id="path3011"
       style="fill:#000000;fill-opacity:1;fill-rule:nonzero;stroke:none"
       d="m 317.405,775.8 0.054,0.336 c -0.564,0 -0.836,0 -0.792,0.327 l 0.347,2.071 c 0.152,0.933 0.217,1.269 -0.053,1.66 -0.131,0.186 -0.445,0.401 -1.075,0.401 -0.792,0 -1.378,-0.465 -1.802,-1.139 l 0.196,1.139 -1.552,-0.118 -0.055,-0.336 c 0.761,0 0.836,-0.077 0.74,-0.608 l -0.479,-2.908 c -0.086,-0.489 -0.206,-0.489 -0.932,-0.489 l -0.055,-0.336 1.237,0.033 1.205,-0.033 0.053,0.336 c -0.726,0 -0.845,0 -0.759,0.489 l 0.326,1.997 c 0.196,1.128 1.063,1.736 1.758,1.736 0.683,0 0.705,-0.586 0.608,-1.205 l -0.423,-2.528 c -0.088,-0.489 -0.207,-0.489 -0.935,-0.489 l -0.053,-0.336 1.236,0.033 1.205,-0.033" /><path
       inkscape:connector-curvature="0"
       id="path3013"
       style="fill:#000000;fill-opacity:1;fill-rule:nonzero;stroke:none"
       d="m 322.42,777.091 c 0.022,0.109 -0.065,0.131 -0.12,0.131 -0.097,0 -0.13,-0.066 -0.162,-0.153 -0.575,-1.117 -1.552,-1.117 -1.66,-1.117 -0.542,0 -0.923,0.326 -1.097,0.726 -0.237,0.522 -0.118,1.238 -0.053,1.628 l 3.027,0 c 0.239,0 0.272,0 0.304,0.228 0.185,1.074 -0.228,2.127 -1.584,2.127 -1.259,0 -2.442,-1.117 -2.67,-2.473 -0.249,-1.455 0.717,-2.507 1.964,-2.507 1.325,0 2.019,1.203 2.051,1.41 z m -0.478,1.443 -2.572,0 c 0.338,1.618 1.293,1.888 1.661,1.888 1.117,0 0.988,-1.464 0.911,-1.888" /><path
       inkscape:connector-curvature="0"
       id="path3015"
       style="fill:#000000;fill-opacity:1;fill-rule:nonzero;stroke:none"
       d="m 327.144,779.934 c 0.054,0.347 -0.228,0.661 -0.694,0.661 -0.792,0 -1.303,-0.726 -1.541,-1.192 l 0.207,1.192 -1.532,-0.118 -0.053,-0.336 c 0.76,0 0.835,-0.077 0.738,-0.608 l -0.478,-2.908 c -0.086,-0.489 -0.207,-0.489 -0.933,-0.489 l -0.055,-0.336 1.249,0.033 c 0.434,0 0.943,0 1.367,-0.033 l 0.054,0.336 -0.228,0 c -0.803,0 -0.803,0.12 -0.737,0.511 l 0.281,1.67 c 0.174,1.075 0.792,2.041 1.617,2.041 0.077,0 0.097,0 0.119,-0.011 -0.031,-0.011 -0.27,-0.142 -0.325,-0.424 -0.044,-0.304 0.152,-0.467 0.391,-0.467 0.195,0 0.489,0.132 0.553,0.478" /><path
       inkscape:connector-curvature="0"
       id="path3017"
       style="fill:#000000;fill-opacity:1;fill-rule:nonzero;stroke:none"
       d="m 329.48,775.8 0.054,0.336 c -0.715,0 -0.748,0.055 -0.673,0.478 l 0.662,3.981 -1.54,-0.118 -0.055,-0.336 c 0.706,0 0.792,-0.066 0.706,-0.597 l -0.489,-2.919 c -0.086,-0.489 -0.206,-0.489 -0.932,-0.489 l -0.055,-0.336 1.205,0.033 c 0.379,0 0.748,-0.022 1.117,-0.033 z m 0.5,6.553 c 0.042,0.294 -0.153,0.575 -0.478,0.575 -0.369,0 -0.641,-0.303 -0.683,-0.575 -0.055,-0.292 0.151,-0.575 0.476,-0.575 0.369,0 0.641,0.305 0.685,0.575" /><path
       inkscape:connector-curvature="0"
       id="path3019"
       style="fill:#000000;fill-opacity:1;fill-rule:nonzero;stroke:none"
       d="m 334.52,777.091 c 0.022,0.109 -0.087,0.109 -0.12,0.109 -0.097,0 -0.13,-0.044 -0.162,-0.109 -0.488,-1.008 -1.216,-1.139 -1.616,-1.139 -0.577,0 -1.444,0.467 -1.163,2.214 0.305,1.768 1.271,2.223 1.846,2.223 0.098,0 0.77,-0.009 1.084,-0.4 -0.444,-0.033 -0.564,-0.359 -0.586,-0.5 -0.053,-0.281 0.11,-0.498 0.413,-0.498 0.282,0 0.532,0.184 0.586,0.509 0.12,0.738 -0.629,1.161 -1.464,1.161 -1.357,0 -2.55,-1.172 -2.779,-2.517 -0.228,-1.389 0.663,-2.463 1.921,-2.463 1.454,0 2.018,1.302 2.04,1.41" /><path
       inkscape:connector-curvature="0"
       id="path3021"
       style="fill:#000000;fill-opacity:1;fill-rule:nonzero;stroke:none"
       d="m 344.052,777.819 c 0.184,1.084 -0.391,1.975 -1.26,2.19 l -1.334,0.338 c -0.652,0.162 -0.977,0.748 -0.869,1.378 0.131,0.759 0.825,1.42 1.672,1.42 1.811,0 1.758,-1.779 1.736,-2.267 0,-0.065 -0.011,-0.13 0.108,-0.13 0.142,0 0.151,0.054 0.184,0.26 l 0.369,2.181 c 0.022,0.184 0.044,0.261 -0.075,0.261 -0.077,0 -0.099,-0.011 -0.195,-0.141 l -0.479,-0.618 c -0.27,0.314 -0.639,0.759 -1.606,0.759 -1.203,0 -2.278,-0.955 -2.473,-2.105 -0.152,-0.901 0.293,-1.693 1.097,-1.986 0.107,-0.043 0.639,-0.173 1.367,-0.357 0.281,-0.077 0.595,-0.154 0.834,-0.555 0.174,-0.281 0.228,-0.639 0.163,-0.997 -0.119,-0.772 -0.793,-1.553 -1.703,-1.553 -0.315,0 -1.14,0.055 -1.618,0.586 -0.531,0.586 -0.454,1.281 -0.401,1.672 0.011,0.108 -0.075,0.108 -0.108,0.108 -0.141,0 -0.152,-0.075 -0.184,-0.271 l -0.369,-2.17 c -0.033,-0.184 -0.044,-0.261 0.075,-0.261 0.076,0 0.098,0.022 0.186,0.142 l 0.498,0.617 c 0.272,-0.368 0.9,-0.759 1.866,-0.759 1.27,0 2.323,1.064 2.519,2.258" /><path
       inkscape:connector-curvature="0"
       id="path3023"
       style="fill:#000000;fill-opacity:1;fill-rule:nonzero;stroke:none"
       d="m 348.23,777.145 0.098,0.619 -0.272,0 -0.097,-0.597 c -0.131,-0.803 -0.532,-1.215 -0.932,-1.215 -0.729,0 -0.555,0.987 -0.533,1.171 l 0.511,3.018 1.551,0 0.053,0.336 -1.551,0 0.337,1.996 -0.272,0 c -0.162,-0.89 -0.682,-2.051 -1.757,-2.093 l -0.033,-0.239 0.922,0 -0.499,-2.996 c -0.228,-1.334 0.76,-1.464 1.15,-1.464 0.771,0 1.205,0.771 1.324,1.464" /><path
       inkscape:connector-curvature="0"
       id="path3025"
       style="fill:#000000;fill-opacity:1;fill-rule:nonzero;stroke:none"
       d="m 354.003,776.766 0.099,0.607 -0.272,0 -0.097,-0.607 c -0.11,-0.63 -0.391,-0.694 -0.511,-0.694 -0.358,0 -0.314,0.487 -0.303,0.542 l 0.358,2.17 c 0.076,0.455 0.14,0.879 -0.174,1.28 -0.358,0.424 -0.869,0.597 -1.389,0.597 -0.889,0 -1.725,-0.509 -1.845,-1.227 -0.053,-0.325 0.131,-0.509 0.412,-0.509 0.305,0 0.533,0.217 0.586,0.498 0.022,0.132 0.022,0.49 -0.476,0.5 0.357,0.38 0.911,0.499 1.257,0.499 0.533,0 1.086,-0.424 0.924,-1.389 l -0.066,-0.402 c -0.564,-0.031 -1.323,-0.064 -2.061,-0.39 -0.879,-0.369 -1.248,-0.933 -1.325,-1.41 -0.151,-0.879 0.858,-1.15 1.541,-1.15 0.717,0 1.292,0.433 1.584,0.944 -0.032,-0.434 0.185,-0.891 0.696,-0.891 0.228,0 0.911,0.154 1.062,1.032 z m -1.725,0.553 c -0.162,-1.031 -1.009,-1.4 -1.497,-1.4 -0.531,0 -0.912,0.379 -0.825,0.923 0.099,0.597 0.705,1.497 2.507,1.563 l -0.185,-1.086" /><path
       inkscape:connector-curvature="0"
       id="path3027"
       style="fill:#000000;fill-opacity:1;fill-rule:nonzero;stroke:none"
       d="m 357.93,777.145 0.098,0.619 -0.272,0 -0.097,-0.597 c -0.131,-0.803 -0.532,-1.215 -0.932,-1.215 -0.729,0 -0.555,0.987 -0.533,1.171 l 0.511,3.018 1.551,0 0.053,0.336 -1.551,0 0.337,1.996 -0.272,0 c -0.162,-0.89 -0.682,-2.051 -1.757,-2.093 l -0.033,-0.239 0.922,0 -0.499,-2.996 c -0.228,-1.334 0.76,-1.464 1.15,-1.464 0.771,0 1.205,0.771 1.324,1.464" /><path
       inkscape:connector-curvature="0"
       id="path3029"
       style="fill:#000000;fill-opacity:1;fill-rule:nonzero;stroke:none"
       d="m 360.98,775.8 0.054,0.336 c -0.715,0 -0.748,0.055 -0.673,0.478 l 0.662,3.981 -1.54,-0.118 -0.055,-0.336 c 0.706,0 0.792,-0.066 0.706,-0.597 l -0.489,-2.919 c -0.086,-0.489 -0.206,-0.489 -0.932,-0.489 l -0.055,-0.336 1.205,0.033 c 0.379,0 0.748,-0.022 1.117,-0.033 z m 0.5,6.553 c 0.042,0.294 -0.153,0.575 -0.478,0.575 -0.369,0 -0.641,-0.303 -0.683,-0.575 -0.055,-0.292 0.151,-0.575 0.476,-0.575 0.369,0 0.641,0.305 0.685,0.575" /><path
       inkscape:connector-curvature="0"
       id="path3031"
       style="fill:#000000;fill-opacity:1;fill-rule:nonzero;stroke:none"
       d="m 366.12,777.091 c 0.022,0.109 -0.087,0.109 -0.12,0.109 -0.097,0 -0.13,-0.044 -0.162,-0.109 -0.488,-1.008 -1.216,-1.139 -1.616,-1.139 -0.577,0 -1.444,0.467 -1.163,2.214 0.305,1.768 1.271,2.223 1.846,2.223 0.098,0 0.77,-0.009 1.084,-0.4 -0.444,-0.033 -0.564,-0.359 -0.586,-0.5 -0.053,-0.281 0.11,-0.498 0.413,-0.498 0.282,0 0.532,0.184 0.586,0.509 0.12,0.738 -0.629,1.161 -1.464,1.161 -1.357,0 -2.55,-1.172 -2.779,-2.517 -0.228,-1.389 0.663,-2.463 1.921,-2.463 1.454,0 2.018,1.302 2.04,1.41" /><path
       inkscape:connector-curvature="0"
       id="path3033"
       style="fill:#000000;fill-opacity:1;fill-rule:nonzero;stroke:none"
       d="m 371.603,776.766 0.099,0.607 -0.272,0 -0.097,-0.607 c -0.11,-0.63 -0.391,-0.694 -0.511,-0.694 -0.358,0 -0.314,0.487 -0.303,0.542 l 0.358,2.17 c 0.076,0.455 0.14,0.879 -0.174,1.28 -0.358,0.424 -0.869,0.597 -1.389,0.597 -0.889,0 -1.725,-0.509 -1.845,-1.227 -0.053,-0.325 0.131,-0.509 0.412,-0.509 0.305,0 0.533,0.217 0.586,0.498 0.022,0.132 0.022,0.49 -0.476,0.5 0.357,0.38 0.911,0.499 1.257,0.499 0.533,0 1.086,-0.424 0.924,-1.389 l -0.066,-0.402 c -0.564,-0.031 -1.323,-0.064 -2.061,-0.39 -0.879,-0.369 -1.248,-0.933 -1.325,-1.41 -0.151,-0.879 0.858,-1.15 1.541,-1.15 0.717,0 1.292,0.433 1.584,0.944 -0.032,-0.434 0.185,-0.891 0.696,-0.891 0.228,0 0.911,0.154 1.062,1.032 z m -1.725,0.553 c -0.162,-1.031 -1.009,-1.4 -1.497,-1.4 -0.531,0 -0.912,0.379 -0.825,0.923 0.099,0.597 0.705,1.497 2.507,1.563 l -0.185,-1.086" /><path
       inkscape:connector-curvature="0"
       id="path3035"
       style="fill:#000000;fill-opacity:1;fill-rule:nonzero;stroke:none"
       d="m 374.467,775.8 0.055,0.336 c -0.728,0 -0.847,0 -0.761,0.489 l 1.119,6.705 -1.585,-0.119 -0.054,-0.336 c 0.759,0 0.836,-0.077 0.737,-0.608 l -0.933,-5.642 c -0.086,-0.489 -0.206,-0.489 -0.932,-0.489 l -0.055,-0.336 1.215,0.033 1.194,-0.033" /><path
       inkscape:connector-curvature="0"
       id="path3037"
       style="fill:#000000;fill-opacity:1;fill-rule:nonzero;stroke:none"
       d="m 377.467,775.8 0.055,0.336 c -0.728,0 -0.847,0 -0.761,0.489 l 1.119,6.705 -1.585,-0.119 -0.054,-0.336 c 0.759,0 0.836,-0.077 0.737,-0.608 l -0.933,-5.642 c -0.086,-0.489 -0.206,-0.489 -0.932,-0.489 l -0.055,-0.336 1.215,0.033 1.194,-0.033" /><path
       inkscape:connector-curvature="0"
       id="path3039"
       style="fill:#000000;fill-opacity:1;fill-rule:nonzero;stroke:none"
       d="m 383.939,780.141 0.055,0.336 c -0.25,-0.022 -0.575,-0.033 -0.825,-0.033 l -0.933,0.033 -0.055,-0.336 c 0.336,-0.011 0.478,-0.196 0.435,-0.468 -0.022,-0.107 -0.033,-0.129 -0.11,-0.26 l -1.54,-2.669 -0.727,2.919 c -0.022,0.109 -0.033,0.151 -0.033,0.195 0.055,0.283 0.457,0.283 0.663,0.283 l 0.053,0.336 -1.192,-0.033 c -0.294,0 -0.717,0.011 -1.042,0.033 l -0.055,-0.336 c 0.522,0 0.726,0 0.814,-0.38 l 0.966,-3.961 -0.38,-0.641 c -0.336,-0.596 -0.77,-1.345 -1.464,-1.345 -0.055,0 -0.305,0 -0.478,0.195 0.347,0.044 0.478,0.283 0.498,0.457 0.055,0.281 -0.13,0.456 -0.38,0.456 -0.217,0 -0.476,-0.142 -0.531,-0.467 -0.075,-0.489 0.314,-0.88 0.858,-0.88 0.683,0 1.225,0.619 1.595,1.238 l 2.68,4.632 c 0.402,0.685 0.955,0.696 1.128,0.696" /><path
       inkscape:connector-curvature="0"
       id="path3041"
       style="fill:#000000;fill-opacity:1;fill-rule:nonzero;stroke:none"
       d="m 396.203,782.875 0.055,0.336 c -0.336,-0.022 -0.781,-0.033 -1.063,-0.033 l -1.226,0.033 -0.055,-0.336 c 0.564,-0.011 0.738,-0.294 0.695,-0.542 -0.011,-0.088 -0.054,-0.153 -0.087,-0.217 l -2.853,-5.232 -1.161,5.48 c -0.044,0.153 -0.033,0.195 -0.033,0.195 0.053,0.316 0.672,0.316 0.944,0.316 l 0.054,0.336 c -0.401,-0.033 -1.151,-0.033 -1.562,-0.033 l -1.367,0.033 -0.055,-0.336 c 0.705,0 0.911,0 0.988,-0.412 l 1.411,-6.663 c 0.042,-0.206 0.085,-0.239 0.226,-0.239 0.184,0 0.217,0.055 0.294,0.206 l 3.494,6.38 c 0.217,0.401 0.564,0.717 1.301,0.728" /><path
       inkscape:connector-curvature="0"
       id="path3043"
       style="fill:#000000;fill-opacity:1;fill-rule:nonzero;stroke:none"
       d="m 399.12,777.091 c 0.022,0.109 -0.065,0.131 -0.12,0.131 -0.097,0 -0.13,-0.066 -0.162,-0.153 -0.575,-1.117 -1.552,-1.117 -1.66,-1.117 -0.542,0 -0.923,0.326 -1.097,0.726 -0.237,0.522 -0.118,1.238 -0.053,1.628 l 3.027,0 c 0.239,0 0.272,0 0.304,0.228 0.185,1.074 -0.228,2.127 -1.584,2.127 -1.259,0 -2.442,-1.117 -2.67,-2.473 -0.249,-1.455 0.717,-2.507 1.964,-2.507 1.325,0 2.019,1.203 2.051,1.41 z m -0.478,1.443 -2.572,0 c 0.338,1.618 1.293,1.888 1.661,1.888 1.117,0 0.988,-1.464 0.911,-1.888" /><path
       inkscape:connector-curvature="0"
       id="path3045"
       style="fill:#000000;fill-opacity:1;fill-rule:nonzero;stroke:none"
       d="m 403.844,779.934 c 0.054,0.347 -0.228,0.661 -0.694,0.661 -0.792,0 -1.303,-0.726 -1.541,-1.192 l 0.207,1.192 -1.532,-0.118 -0.053,-0.336 c 0.76,0 0.835,-0.077 0.738,-0.608 l -0.478,-2.908 c -0.086,-0.489 -0.207,-0.489 -0.933,-0.489 l -0.055,-0.336 1.249,0.033 c 0.434,0 0.943,0 1.367,-0.033 l 0.054,0.336 -0.228,0 c -0.803,0 -0.803,0.12 -0.737,0.511 l 0.281,1.67 c 0.174,1.075 0.792,2.041 1.617,2.041 0.077,0 0.097,0 0.119,-0.011 -0.031,-0.011 -0.27,-0.142 -0.325,-0.424 -0.044,-0.304 0.152,-0.467 0.391,-0.467 0.195,0 0.489,0.132 0.553,0.478" /><path
       inkscape:connector-curvature="0"
       id="path3047"
       style="fill:#000000;fill-opacity:1;fill-rule:nonzero;stroke:none"
       d="m 406.18,775.8 0.054,0.336 c -0.715,0 -0.748,0.055 -0.673,0.478 l 0.662,3.981 -1.54,-0.118 -0.055,-0.336 c 0.706,0 0.792,-0.066 0.706,-0.597 l -0.489,-2.919 c -0.086,-0.489 -0.206,-0.489 -0.932,-0.489 l -0.055,-0.336 1.205,0.033 c 0.379,0 0.748,-0.022 1.117,-0.033 z m 0.5,6.553 c 0.042,0.294 -0.153,0.575 -0.478,0.575 -0.369,0 -0.641,-0.303 -0.683,-0.575 -0.055,-0.292 0.151,-0.575 0.476,-0.575 0.369,0 0.641,0.305 0.685,0.575" /><path
       inkscape:connector-curvature="0"
       id="path3049"
       style="fill:#000000;fill-opacity:1;fill-rule:nonzero;stroke:none"
       d="m 412.219,775.8 0.053,0.336 c -0.727,0 -0.845,0 -0.759,0.489 l 0.662,3.981 -1.389,-0.097 c -0.173,-0.011 -0.195,-0.021 -0.195,-0.021 -0.022,-0.011 -0.044,-0.011 -0.196,-0.011 l -1.279,0 0.206,1.226 c 0.173,1.074 1.181,1.508 1.855,1.508 0.325,0 0.693,-0.108 0.868,-0.358 -0.445,-0.022 -0.565,-0.325 -0.586,-0.5 -0.065,-0.358 0.196,-0.498 0.402,-0.498 0.248,0 0.531,0.173 0.586,0.498 0.108,0.641 -0.413,1.097 -1.216,1.097 -1.009,0 -2.398,-0.553 -2.593,-1.736 l -0.207,-1.237 -0.858,0 -0.053,-0.336 0.857,0 -0.586,-3.516 c -0.086,-0.489 -0.207,-0.489 -0.933,-0.489 l -0.055,-0.336 1.216,0.033 1.194,-0.033 0.054,0.336 c -0.726,0 -0.847,0 -0.759,0.489 l 0.586,3.516 1.714,0 c 0.498,0 0.553,-0.143 0.476,-0.586 l -0.487,-2.93 c -0.088,-0.489 -0.206,-0.489 -0.933,-0.489 l -0.055,-0.336 1.216,0.033 1.194,-0.033" /><path
       inkscape:connector-curvature="0"
       id="path3051"
       style="fill:#000000;fill-opacity:1;fill-rule:nonzero;stroke:none"
       d="m 417.32,777.091 c 0.022,0.109 -0.065,0.131 -0.12,0.131 -0.097,0 -0.13,-0.066 -0.162,-0.153 -0.575,-1.117 -1.552,-1.117 -1.66,-1.117 -0.542,0 -0.923,0.326 -1.097,0.726 -0.237,0.522 -0.118,1.238 -0.053,1.628 l 3.027,0 c 0.239,0 0.272,0 0.304,0.228 0.185,1.074 -0.228,2.127 -1.584,2.127 -1.259,0 -2.442,-1.117 -2.67,-2.473 -0.249,-1.455 0.717,-2.507 1.964,-2.507 1.325,0 2.019,1.203 2.051,1.41 z m -0.478,1.443 -2.572,0 c 0.338,1.618 1.293,1.888 1.661,1.888 1.117,0 0.988,-1.464 0.911,-1.888" /><path
       inkscape:connector-curvature="0"
       id="path3053"
       style="fill:#000000;fill-opacity:1;fill-rule:nonzero;stroke:none"
       d="m 423.219,775.8 0.053,0.336 c -0.759,0 -0.834,0.077 -0.738,0.608 l 1.097,6.586 -1.584,-0.119 -0.055,-0.336 c 0.76,0 0.836,-0.077 0.738,-0.608 l -0.391,-2.344 c -0.25,0.391 -0.661,0.672 -1.247,0.672 -1.281,0 -2.604,-1.062 -2.833,-2.462 -0.228,-1.378 0.652,-2.452 1.888,-2.452 0.695,0 1.248,0.369 1.573,0.716 l -0.118,-0.716 1.617,0.119 z m -1.378,1.28 c -0.033,-0.196 -0.044,-0.216 -0.185,-0.402 -0.412,-0.52 -0.943,-0.759 -1.411,-0.759 -0.489,0 -0.836,0.283 -1.02,0.695 -0.217,0.445 -0.141,1.063 -0.066,1.508 0.066,0.401 0.196,1.053 0.586,1.541 0.294,0.335 0.761,0.695 1.347,0.695 0.38,0 0.813,-0.164 1.063,-0.652 0.087,-0.184 0.087,-0.206 0.054,-0.401 l -0.368,-2.225" /><path
       inkscape:connector-curvature="0"
       id="path3055"
       style="fill:#000000;fill-opacity:1;fill-rule:nonzero;stroke:none"
       d="m 433.981,778.6 -0.27,0 c -0.305,-1.108 -0.684,-2.464 -2.594,-2.464 l -0.89,0 c -0.51,0 -0.521,0.077 -0.455,0.434 l 0.966,5.783 c 0.054,0.37 0.085,0.522 1.117,0.522 l 0.358,0 0.054,0.336 c -0.401,-0.033 -1.389,-0.033 -1.834,-0.033 -0.422,0 -1.269,0 -1.638,0.033 l -0.054,-0.336 0.261,0 c 0.834,0 0.834,-0.12 0.77,-0.511 l -0.955,-5.717 c -0.065,-0.391 -0.109,-0.511 -0.944,-0.511 l -0.26,0 -0.055,-0.336 5.653,0 0.77,2.8" /><path
       inkscape:connector-curvature="0"
       id="path3057"
       style="fill:#000000;fill-opacity:1;fill-rule:nonzero;stroke:none"
       d="m 439.403,776.766 0.099,0.607 -0.272,0 -0.097,-0.607 c -0.11,-0.63 -0.391,-0.694 -0.511,-0.694 -0.358,0 -0.314,0.487 -0.303,0.542 l 0.358,2.17 c 0.076,0.455 0.14,0.879 -0.174,1.28 -0.358,0.424 -0.869,0.597 -1.389,0.597 -0.889,0 -1.725,-0.509 -1.845,-1.227 -0.053,-0.325 0.131,-0.509 0.412,-0.509 0.305,0 0.533,0.217 0.586,0.498 0.022,0.132 0.022,0.49 -0.476,0.5 0.357,0.38 0.911,0.499 1.257,0.499 0.533,0 1.086,-0.424 0.924,-1.389 l -0.066,-0.402 c -0.564,-0.031 -1.323,-0.064 -2.061,-0.39 -0.879,-0.369 -1.248,-0.933 -1.325,-1.41 -0.151,-0.879 0.858,-1.15 1.541,-1.15 0.717,0 1.292,0.433 1.584,0.944 -0.032,-0.434 0.185,-0.891 0.696,-0.891 0.228,0 0.911,0.154 1.062,1.032 z m -1.725,0.553 c -0.162,-1.031 -1.009,-1.4 -1.497,-1.4 -0.531,0 -0.912,0.379 -0.825,0.923 0.099,0.597 0.705,1.497 2.507,1.563 l -0.185,-1.086" /><path
       inkscape:connector-curvature="0"
       id="path3059"
       style="fill:#000000;fill-opacity:1;fill-rule:nonzero;stroke:none"
       d="m 445.205,775.8 0.054,0.336 c -0.564,0 -0.836,0 -0.792,0.327 l 0.347,2.071 c 0.152,0.933 0.217,1.269 -0.053,1.66 -0.131,0.186 -0.445,0.401 -1.075,0.401 -0.792,0 -1.378,-0.465 -1.802,-1.139 l 0.196,1.139 -1.552,-0.118 -0.055,-0.336 c 0.761,0 0.836,-0.077 0.74,-0.608 l -0.479,-2.908 c -0.086,-0.489 -0.206,-0.489 -0.932,-0.489 l -0.055,-0.336 1.237,0.033 1.205,-0.033 0.053,0.336 c -0.726,0 -0.845,0 -0.759,0.489 l 0.326,1.997 c 0.196,1.128 1.063,1.736 1.758,1.736 0.683,0 0.705,-0.586 0.608,-1.205 l -0.423,-2.528 c -0.088,-0.489 -0.207,-0.489 -0.935,-0.489 l -0.053,-0.336 1.236,0.033 1.205,-0.033" /><path
       inkscape:connector-curvature="0"
       id="path3061"
       style="fill:#000000;fill-opacity:1;fill-rule:nonzero;stroke:none"
       d="m 451.489,780.184 c 0.033,0.185 -0.033,0.532 -0.455,0.532 -0.217,0 -0.706,-0.066 -1.237,-0.511 -0.402,0.359 -0.847,0.39 -1.084,0.39 -1.01,0 -1.89,-0.748 -2.03,-1.582 -0.077,-0.479 0.097,-0.891 0.325,-1.119 -0.163,-0.163 -0.424,-0.521 -0.488,-0.9 -0.054,-0.336 0.022,-0.749 0.325,-0.966 -0.682,-0.184 -1.117,-0.651 -1.182,-1.086 -0.13,-0.781 0.846,-1.378 2.17,-1.378 1.28,0 2.495,0.555 2.637,1.4 0.064,0.38 0.01,0.933 -0.5,1.238 -0.52,0.303 -1.15,0.303 -1.812,0.303 -0.27,0 -0.738,0 -0.813,0.011 -0.337,0.043 -0.511,0.379 -0.456,0.728 0.011,0.042 0.055,0.292 0.27,0.509 0.371,-0.303 0.814,-0.336 1.021,-0.336 1.009,0 1.878,0.749 2.018,1.585 0.066,0.401 -0.032,0.801 -0.271,1.051 0.456,0.369 0.857,0.424 1.053,0.424 0,0 0.076,0 0.108,-0.011 -0.13,-0.044 -0.207,-0.163 -0.227,-0.293 -0.033,-0.184 0.086,-0.315 0.259,-0.315 0.11,0 0.336,0.076 0.369,0.326 z m -2.105,-1.171 c -0.043,-0.294 -0.107,-0.641 -0.325,-0.913 -0.109,-0.13 -0.401,-0.434 -0.836,-0.434 -0.943,0 -0.77,1.086 -0.726,1.336 0.053,0.292 0.119,0.639 0.325,0.911 0.109,0.129 0.412,0.434 0.847,0.434 0.944,0 0.759,-1.086 0.715,-1.334 z m 0.521,-4.071 c -0.097,-0.586 -0.966,-1.128 -2.028,-1.128 -1.097,0 -1.747,0.553 -1.65,1.128 0.076,0.5 0.564,0.902 1.042,0.935 l 0.64,0 c 0.933,0 2.149,0 1.996,-0.935" /><path
       inkscape:connector-curvature="0"
       id="path3063"
       style="fill:#000000;fill-opacity:1;fill-rule:nonzero;stroke:none"
       d="m 456.805,775.8 0.054,0.336 c -0.759,0 -0.836,0.077 -0.737,0.608 l 0.639,3.851 -1.616,-0.118 -0.054,-0.336 c 0.759,0 0.836,-0.077 0.737,-0.608 l -0.314,-1.931 c -0.162,-0.944 -0.803,-1.683 -1.595,-1.683 -0.911,0 -0.869,0.511 -0.781,1.075 l 0.607,3.601 -1.617,-0.118 -0.055,-0.336 c 0.847,0 0.836,-0.033 0.674,-0.999 l -0.272,-1.628 c -0.141,-0.845 -0.303,-1.833 1.347,-1.833 0.606,0 1.139,0.303 1.562,0.977 l -0.164,-0.977 1.585,0.119" /><path
       inkscape:connector-curvature="0"
       id="path3065"
       style="fill:#000000;fill-opacity:1;fill-rule:nonzero;stroke:none"
       d="m 462.403,776.766 0.099,0.607 -0.272,0 -0.097,-0.607 c -0.11,-0.63 -0.391,-0.694 -0.511,-0.694 -0.358,0 -0.314,0.487 -0.303,0.542 l 0.358,2.17 c 0.076,0.455 0.14,0.879 -0.174,1.28 -0.358,0.424 -0.869,0.597 -1.389,0.597 -0.889,0 -1.725,-0.509 -1.845,-1.227 -0.053,-0.325 0.131,-0.509 0.412,-0.509 0.305,0 0.533,0.217 0.586,0.498 0.022,0.132 0.022,0.49 -0.476,0.5 0.357,0.38 0.911,0.499 1.257,0.499 0.533,0 1.086,-0.424 0.924,-1.389 l -0.066,-0.402 c -0.564,-0.031 -1.323,-0.064 -2.061,-0.39 -0.879,-0.369 -1.248,-0.933 -1.325,-1.41 -0.151,-0.879 0.858,-1.15 1.541,-1.15 0.717,0 1.292,0.433 1.584,0.944 -0.032,-0.434 0.185,-0.891 0.696,-0.891 0.228,0 0.911,0.154 1.062,1.032 z m -1.725,0.553 c -0.162,-1.031 -1.009,-1.4 -1.497,-1.4 -0.531,0 -0.912,0.379 -0.825,0.923 0.099,0.597 0.705,1.497 2.507,1.563 l -0.185,-1.086" /><path
       inkscape:connector-curvature="0"
       id="path3067"
       style="fill:#000000;fill-opacity:1;fill-rule:nonzero;stroke:none"
       d="m 468.489,780.184 c 0.033,0.185 -0.033,0.532 -0.455,0.532 -0.217,0 -0.706,-0.066 -1.237,-0.511 -0.402,0.359 -0.847,0.39 -1.084,0.39 -1.01,0 -1.89,-0.748 -2.03,-1.582 -0.077,-0.479 0.097,-0.891 0.325,-1.119 -0.163,-0.163 -0.424,-0.521 -0.488,-0.9 -0.054,-0.336 0.022,-0.749 0.325,-0.966 -0.682,-0.184 -1.117,-0.651 -1.182,-1.086 -0.13,-0.781 0.846,-1.378 2.17,-1.378 1.28,0 2.495,0.555 2.637,1.4 0.064,0.38 0.01,0.933 -0.5,1.238 -0.52,0.303 -1.15,0.303 -1.812,0.303 -0.27,0 -0.738,0 -0.813,0.011 -0.337,0.043 -0.511,0.379 -0.456,0.728 0.011,0.042 0.055,0.292 0.27,0.509 0.371,-0.303 0.814,-0.336 1.021,-0.336 1.009,0 1.878,0.749 2.018,1.585 0.066,0.401 -0.032,0.801 -0.271,1.051 0.456,0.369 0.857,0.424 1.053,0.424 0,0 0.076,0 0.108,-0.011 -0.13,-0.044 -0.207,-0.163 -0.227,-0.293 -0.033,-0.184 0.086,-0.315 0.259,-0.315 0.11,0 0.336,0.076 0.369,0.326 z m -2.105,-1.171 c -0.043,-0.294 -0.107,-0.641 -0.325,-0.913 -0.109,-0.13 -0.401,-0.434 -0.836,-0.434 -0.943,0 -0.77,1.086 -0.726,1.336 0.053,0.292 0.119,0.639 0.325,0.911 0.109,0.129 0.412,0.434 0.847,0.434 0.944,0 0.759,-1.086 0.715,-1.334 z m 0.521,-4.071 c -0.097,-0.586 -0.966,-1.128 -2.028,-1.128 -1.097,0 -1.747,0.553 -1.65,1.128 0.076,0.5 0.564,0.902 1.042,0.935 l 0.64,0 c 0.933,0 2.149,0 1.996,-0.935" /><path
       inkscape:connector-curvature="0"
       id="path3069"
       style="fill:#000000;fill-opacity:1;fill-rule:nonzero;stroke:none"
       d="m 472.62,777.091 c 0.022,0.109 -0.065,0.131 -0.12,0.131 -0.097,0 -0.13,-0.066 -0.162,-0.153 -0.575,-1.117 -1.552,-1.117 -1.66,-1.117 -0.542,0 -0.923,0.326 -1.097,0.726 -0.237,0.522 -0.118,1.238 -0.053,1.628 l 3.027,0 c 0.239,0 0.272,0 0.304,0.228 0.185,1.074 -0.228,2.127 -1.584,2.127 -1.259,0 -2.442,-1.117 -2.67,-2.473 -0.249,-1.455 0.717,-2.507 1.964,-2.507 1.325,0 2.019,1.203 2.051,1.41 z m -0.478,1.443 -2.572,0 c 0.338,1.618 1.293,1.888 1.661,1.888 1.117,0 0.988,-1.464 0.911,-1.888" /><path
       inkscape:connector-curvature="0"
       id="path3071"
       style="fill:#000000;fill-opacity:1;fill-rule:nonzero;stroke:none"
       d="m 479.558,773.195 c 0,0.033 0.011,0.055 -0.141,0.239 -1.129,1.368 -1.14,3.419 -0.858,5.079 0.314,1.887 1.043,3.776 2.605,5.132 0.163,0.13 0.163,0.152 0.163,0.185 0.021,0.075 -0.022,0.108 -0.088,0.108 -0.108,0 -1.205,-0.738 -2.072,-2.116 -0.759,-1.194 -1.086,-2.399 -1.237,-3.309 -0.141,-0.847 -0.239,-2.16 0.151,-3.386 0.424,-1.335 1.238,-2.039 1.346,-2.039 0.065,0 0.12,0.032 0.131,0.107" /><path
       inkscape:connector-curvature="0"
       id="path3073"
       style="fill:#000000;fill-opacity:1;fill-rule:nonzero;stroke:none"
       d="m 487.197,778.003 c 0.195,1.205 -0.531,2.083 -1.486,2.289 l -1.519,0.336 c -0.412,0.099 -0.965,0.467 -0.847,1.128 0.077,0.467 0.488,1.141 1.574,1.141 0.867,0 1.898,-0.369 1.909,-1.845 0,-0.261 -0.011,-0.282 0.217,-0.282 0.261,0 0.272,0.053 0.314,0.303 l 0.338,1.986 c 0.031,0.207 0.042,0.304 -0.153,0.304 -0.086,0 -0.097,-0.011 -0.238,-0.119 l -0.564,-0.478 c -0.544,0.5 -1.237,0.597 -1.758,0.597 -1.65,0 -2.604,-1.041 -2.789,-2.182 -0.12,-0.704 0.152,-1.203 0.347,-1.442 0.435,-0.531 0.792,-0.608 1.931,-0.869 0.922,-0.206 1.107,-0.239 1.302,-0.465 0.142,-0.164 0.359,-0.446 0.283,-0.946 -0.088,-0.52 -0.499,-1.268 -1.628,-1.268 -0.824,0 -2.441,0.217 -2.257,1.834 0.022,0.195 0.033,0.248 -0.206,0.248 -0.261,0 -0.272,-0.064 -0.314,-0.314 l -0.326,-1.975 c -0.033,-0.206 -0.054,-0.303 0.142,-0.303 0.097,0 0.119,0.022 0.226,0.097 l 0.575,0.5 c 0.63,-0.533 1.628,-0.597 2.074,-0.597 1.79,0 2.669,1.225 2.853,2.322" /><path
       inkscape:connector-curvature="0"
       id="path3075"
       style="fill:#000000;fill-opacity:1;fill-rule:nonzero;stroke:none"
       d="m 497.897,782.733 0.076,0.511 -1.226,-0.033 c -0.434,0 -0.999,0 -1.422,0.033 l -0.075,-0.511 c 0.097,0 0.955,0 0.933,-0.13 -0.011,-0.044 -0.055,-0.097 -0.066,-0.13 l -3.015,-4.937 -1.444,5.197 1.02,0 0.077,0.511 c -0.413,-0.033 -1.455,-0.033 -1.922,-0.033 -0.422,0 -1.335,0 -1.714,0.033 l -0.075,-0.511 0.997,0 1.867,-6.738 c 0.055,-0.195 0.086,-0.282 0.39,-0.282 0.174,0 0.315,0 0.477,0.26 l 3.972,6.522 c 0.087,0.141 0.151,0.238 0.944,0.238 l 0.206,0" /><path
       inkscape:connector-curvature="0"
       id="path3077"
       style="fill:#000000;fill-opacity:1;fill-rule:nonzero;stroke:none"
       d="m 504.577,778.773 -0.511,0 c -0.218,-0.748 -0.683,-2.464 -2.625,-2.464 l -1.119,0 1.075,6.424 1.464,0 0.077,0.511 c -0.477,-0.033 -1.66,-0.033 -2.193,-0.033 -0.476,0 -1.573,0 -1.986,0.033 l -0.075,-0.511 1.172,0 -1.075,-6.424 -1.172,0 -0.086,-0.509 6.218,0 0.836,2.973" /><path
       inkscape:connector-curvature="0"
       id="path3079"
       style="fill:#000000;fill-opacity:1;fill-rule:nonzero;stroke:none"
       d="m 508.192,778.513 c 0.141,0.846 0.238,2.159 -0.153,3.385 -0.433,1.335 -1.247,2.04 -1.356,2.04 -0.064,0 -0.119,-0.043 -0.13,-0.108 0,-0.033 0,-0.055 0.174,-0.25 0.879,-1.074 1.215,-2.8 0.836,-5.067 -0.316,-1.855 -1.032,-3.766 -2.605,-5.133 -0.163,-0.13 -0.174,-0.152 -0.174,-0.185 -0.011,-0.064 0.022,-0.107 0.088,-0.107 0.108,0 1.214,0.737 2.083,2.115 0.748,1.194 1.084,2.399 1.237,3.31" /><g
       id="g6402"><path
         d="m 126.85512,606.54622 c 0,1.205 -0.878,2.083 -1.865,2.289 l -1.574,0.336 c -0.434,0.099 -1.042,0.467 -1.042,1.128 0,0.467 0.303,1.141 1.389,1.141 0.867,0 1.964,-0.369 2.214,-1.845 0.042,-0.261 0.042,-0.282 0.27,-0.282 0.261,0 0.261,0.053 0.261,0.303 l 0,1.986 c 0,0.207 0,0.304 -0.195,0.304 -0.088,0 -0.098,-0.011 -0.217,-0.119 l -0.489,-0.478 c -0.628,0.5 -1.335,0.597 -1.855,0.597 -1.65,0 -2.431,-1.041 -2.431,-2.182 0,-0.704 0.359,-1.203 0.586,-1.442 0.533,-0.531 0.901,-0.608 2.084,-0.869 0.955,-0.206 1.139,-0.239 1.378,-0.465 0.163,-0.164 0.433,-0.446 0.433,-0.946 0,-0.52 -0.281,-1.268 -1.409,-1.268 -0.825,0 -2.475,0.217 -2.561,1.834 -0.011,0.195 -0.011,0.248 -0.25,0.248 -0.261,0 -0.261,-0.064 -0.261,-0.314 l 0,-1.975 c 0,-0.206 0,-0.303 0.195,-0.303 0.099,0 0.12,0.022 0.206,0.097 l 0.5,0.5 c 0.716,-0.533 1.725,-0.597 2.171,-0.597 1.79,0 2.462,1.225 2.462,2.322"
         style="fill:#000000;fill-opacity:1;fill-rule:nonzero;stroke:none"
         id="path3081"
         inkscape:connector-curvature="0" /><path
         d="m 133.92112,608.65122 0,0.509 c -0.261,-0.022 -0.586,-0.033 -0.858,-0.033 l -0.988,0.033 0,-0.509 c 0,0 0.511,0 0.511,-0.13 l -0.054,-0.131 -1.249,-2.669 -1.378,2.93 0.586,0 0,0.509 -1.345,-0.033 -1.236,0.033 0,-0.509 0.694,0 2.029,-4.308 -0.25,-0.52 c -0.239,-0.522 -0.586,-1.26 -1.356,-1.26 -0.152,0 -0.173,0.011 -0.261,0.044 0.099,0.044 0.347,0.195 0.347,0.575 0,0.358 -0.259,0.619 -0.628,0.619 -0.305,0 -0.619,-0.206 -0.619,-0.63 0,-0.553 0.509,-0.998 1.161,-0.998 0.836,0 1.464,0.673 1.758,1.292 l 2.333,4.958 c 0.075,0.151 0.107,0.228 0.803,0.228"
         style="fill:#000000;fill-opacity:1;fill-rule:nonzero;stroke:none"
         id="path3083"
         inkscape:connector-curvature="0" /><path
         d="m 140.90012,604.34322 0,0.509 -0.748,0 0,2.811 c 0,1.139 -0.586,1.563 -1.672,1.563 -1.04,0 -1.617,-0.619 -1.898,-1.172 l 0,1.172 -1.867,-0.088 0,-0.509 c 0.673,0 0.75,0 0.75,-0.423 l 0,-3.354 -0.75,0 0,-0.509 1.367,0.033 1.367,-0.033 0,0.509 -0.749,0 0,2.269 c 0,1.183 0.935,1.714 1.618,1.714 0.368,0 0.597,-0.228 0.597,-1.053 l 0,-2.93 -0.749,0 0,-0.509 1.367,0.033 1.367,-0.033"
         style="fill:#000000;fill-opacity:1;fill-rule:nonzero;stroke:none"
         id="path3085"
         inkscape:connector-curvature="0" /><path
         d="m 144.97212,605.68822 0,0.575 -0.511,0 0,-0.553 c 0,-0.737 -0.346,-0.998 -0.65,-0.998 -0.629,0 -0.629,0.695 -0.629,0.944 l 0,2.995 1.584,0 0,0.509 -1.584,0 0,2.074 -0.51,0 c -0.011,-1.086 -0.543,-2.16 -1.617,-2.193 l 0,-0.39 0.889,0 0,-2.974 c 0,-1.161 0.944,-1.4 1.714,-1.4 0.825,0 1.314,0.619 1.314,1.411"
         style="fill:#000000;fill-opacity:1;fill-rule:nonzero;stroke:none"
         id="path3087"
         inkscape:connector-curvature="0" /><path
         d="m 151.72712,604.60422 c 0,0.248 -0.141,0.248 -0.281,0.248 -0.663,0.011 -0.663,0.154 -0.663,0.402 l 0,2.333 c 0,0.965 -0.77,1.672 -2.387,1.672 -0.619,0 -1.942,-0.044 -1.942,-0.999 0,-0.478 0.379,-0.684 0.673,-0.684 0.336,0 0.683,0.228 0.683,0.684 0,0.325 -0.206,0.51 -0.238,0.531 0.303,0.066 0.65,0.077 0.782,0.077 0.812,0 1.192,-0.456 1.192,-1.281 l 0,-0.369 c -0.771,-0.033 -3.527,-0.13 -3.527,-1.703 0,-1.042 1.347,-1.238 2.096,-1.238 0.867,0 1.378,0.446 1.615,0.902 0,-0.338 0,-0.836 1.13,-0.836 l 0.52,0 c 0.217,0 0.347,0 0.347,0.261 z m -2.181,1.247 c 0,-1.041 -0.997,-1.183 -1.269,-1.183 -0.553,0 -0.987,0.38 -0.987,0.858 0,1.172 1.714,1.323 2.256,1.356 l 0,-1.031"
         style="fill:#000000;fill-opacity:1;fill-rule:nonzero;stroke:none"
         id="path3089"
         inkscape:connector-curvature="0" /><path
         d="m 158.17412,604.34322 0,0.509 -0.77,0 -1.822,2.16 1.268,1.411 c 0.143,0.151 0.207,0.228 1.108,0.228 l 0,0.509 -0.998,-0.033 -1.119,0.033 0,-0.509 c 0.153,0 0.283,-0.022 0.413,-0.099 -0.043,-0.064 -0.043,-0.086 -0.086,-0.129 l -0.913,-1.021 -1.062,1.249 0.434,0 0,0.509 -1.314,-0.033 -1.194,0.033 0,-0.509 0.772,0 1.692,-1.997 -1.422,-1.595 c -0.184,-0.207 -0.575,-0.207 -1.095,-0.207 l 0,-0.509 0.999,0.033 1.117,-0.033 0,0.509 c -0.196,0 -0.402,0.055 -0.402,0.121 0,0 0,0.022 0.077,0.108 l 1.051,1.182 1.194,-1.411 -0.423,0 0,-0.509 1.303,0.033 1.192,-0.033"
         style="fill:#000000;fill-opacity:1;fill-rule:nonzero;stroke:none"
         id="path3091"
         inkscape:connector-curvature="0" /><path
         d="m 124.92412,589.42422 c 0,0.391 -0.206,0.663 -0.336,0.792 -0.294,0.305 -0.608,0.358 -1.086,0.457 -0.391,0.087 -0.825,0.162 -0.825,0.651 0,0.314 0.261,0.977 1.216,0.977 0.272,0 0.814,-0.077 0.976,-0.5 -0.303,-0.011 -0.52,-0.25 -0.52,-0.488 0,-0.153 0.097,-0.315 0.336,-0.315 0.239,0 0.5,0.184 0.5,0.608 0,0.489 -0.467,0.932 -1.292,0.932 -1.432,0 -1.833,-1.106 -1.833,-1.582 0,-0.847 0.803,-1.01 1.117,-1.075 0.564,-0.108 1.128,-0.229 1.128,-0.825 0,-0.282 -0.25,-1.194 -1.551,-1.194 -0.152,0 -0.988,0 -1.238,0.575 0.413,-0.053 0.684,0.272 0.684,0.575 0,0.25 -0.173,0.381 -0.401,0.381 -0.283,0 -0.608,-0.228 -0.608,-0.717 0,-0.619 0.619,-1.052 1.552,-1.052 1.757,0 2.181,1.313 2.181,1.8"
         style="fill:#000000;fill-opacity:1;fill-rule:nonzero;stroke:none"
         id="path3093"
         inkscape:connector-curvature="0" /><path
         d="m 136.65412,587.52622 c 0,0.217 -0.207,0.217 -0.36,0.217 l -1.725,0 c -1.519,0 -2.767,1.042 -2.897,2.495 l 4.622,0 c 0.153,0 0.36,0 0.36,0.218 0,0.217 -0.207,0.217 -0.36,0.217 l -4.622,0 c 0.13,1.475 1.411,2.495 2.886,2.495 l 1.736,0 c 0.153,0 0.36,0 0.36,0.217 0,0.217 -0.207,0.217 -0.36,0.217 l -1.769,0 c -1.735,0 -3.298,-1.323 -3.298,-3.146 0,-1.802 1.541,-3.147 3.309,-3.147 l 1.758,0 c 0.153,0 0.36,0 0.36,0.217"
         style="fill:#000000;fill-opacity:1;fill-rule:nonzero;stroke:none"
         id="path3095"
         inkscape:connector-curvature="0" /><path
         d="m 146.46512,589.75122 c 0,0.867 -0.521,1.898 -1.715,2.19 l -1.476,0.36 c -0.944,0.226 -1.172,0.976 -1.172,1.367 0,0.738 0.619,1.42 1.542,1.42 1.497,0 2.072,-1.095 2.224,-2.201 0.022,-0.142 0.022,-0.196 0.14,-0.196 0.142,0 0.142,0.054 0.142,0.26 l 0,2.181 c 0,0.184 0,0.261 -0.12,0.261 -0.075,0 -0.075,-0.011 -0.162,-0.141 l -0.402,-0.64 c -0.292,0.292 -0.792,0.781 -1.833,0.781 -1.259,0 -2.225,-0.955 -2.225,-2.105 0,-0.695 0.369,-1.182 0.51,-1.347 0.511,-0.531 0.836,-0.606 1.736,-0.823 0.175,-0.044 0.359,-0.077 0.532,-0.12 0.639,-0.152 0.857,-0.207 1.194,-0.575 0.064,-0.075 0.391,-0.444 0.391,-1.03 0,-0.772 -0.575,-1.553 -1.563,-1.553 -0.456,0 -1.183,0.087 -1.779,0.555 -0.707,0.553 -0.738,1.345 -0.749,1.714 -0.011,0.075 -0.076,0.097 -0.131,0.097 -0.141,0 -0.141,-0.075 -0.141,-0.271 l 0,-2.17 c 0,-0.184 0,-0.261 0.119,-0.261 0.077,0 0.098,0.033 0.164,0.131 l 0.4,0.65 c 0.305,-0.314 1.009,-0.781 2.128,-0.781 1.356,0 2.246,1.097 2.246,2.247"
         style="fill:#000000;fill-opacity:1;fill-rule:nonzero;stroke:none"
         id="path3097"
         inkscape:connector-curvature="0" /><path
         d="m 153.24912,591.42122 -0.152,1.835 -5.328,0 -0.151,-1.835 0.272,0 c 0.096,1.367 0.314,1.563 1.518,1.563 0.608,0 0.641,0 0.641,-0.466 l 0,-3.95 c 0,-0.434 -0.044,-0.553 -0.88,-0.553 l -0.228,0 0,-0.272 c 0.424,0.033 1.064,0.033 1.499,0.033 0.432,0 1.073,0 1.496,-0.033 l 0,0.272 -0.228,0 c -0.836,0 -0.878,0.119 -0.878,0.553 l 0,3.95 c 0,0.466 0.031,0.466 0.639,0.466 1.172,0 1.411,-0.185 1.51,-1.563 l 0.27,0"
         style="fill:#000000;fill-opacity:1;fill-rule:nonzero;stroke:none"
         id="path3099"
         inkscape:connector-curvature="0" /><path
         d="m 161.32212,587.74322 0,0.272 c -0.726,0 -0.781,0.064 -0.781,0.509 l 0,4.014 c 0,0.446 0.055,0.511 0.781,0.511 l 0,0.271 -1.312,0 c -0.25,0 -0.283,0 -0.369,-0.207 l -1.856,-4.556 -1.866,4.567 c -0.076,0.196 -0.142,0.196 -0.369,0.196 l -1.314,0 0,-0.271 c 0.729,0 0.782,-0.065 0.782,-0.511 l 0,-3.7 c 0,-0.248 0,-0.823 -0.782,-0.823 l 0,-0.272 0.935,0.033 c 0.162,0 0.661,-0.011 0.933,-0.033 l 0,0.272 c -0.782,0 -0.782,0.575 -0.782,0.823 l 0,4.08 0.011,0.011 2.028,-4.991 c 0.044,-0.098 0.099,-0.195 0.207,-0.195 0.109,0 0.162,0.097 0.206,0.195 l 2.062,5.068 0.011,-0.011 0,-4.471 c 0,-0.445 -0.054,-0.509 -0.781,-0.509 l 0,-0.272 1.128,0.033 c 0.38,0 0.771,-0.022 1.128,-0.033"
         style="fill:#000000;fill-opacity:1;fill-rule:nonzero;stroke:none"
         id="path3101"
         inkscape:connector-curvature="0" /><path
         d="m 167.84912,591.42122 -0.152,1.835 -5.328,0 -0.151,-1.835 0.272,0 c 0.096,1.367 0.314,1.563 1.518,1.563 0.608,0 0.641,0 0.641,-0.466 l 0,-3.95 c 0,-0.434 -0.044,-0.553 -0.88,-0.553 l -0.228,0 0,-0.272 c 0.424,0.033 1.064,0.033 1.499,0.033 0.432,0 1.073,0 1.496,-0.033 l 0,0.272 -0.228,0 c -0.836,0 -0.878,0.119 -0.878,0.553 l 0,3.95 c 0,0.466 0.031,0.466 0.639,0.466 1.172,0 1.411,-0.185 1.51,-1.563 l 0.27,0"
         style="fill:#000000;fill-opacity:1;fill-rule:nonzero;stroke:none"
         id="path3103"
         inkscape:connector-curvature="0" /><path
         d="m 126.84412,574.08522 c 0,0.858 -0.575,1.856 -2.083,1.964 l 0.608,2.464 0.033,0.152 c 0,0 0,0.108 -0.131,0.108 -0.108,0 -0.119,-0.032 -0.163,-0.216 l -0.629,-2.508 c -1.725,-0.053 -3.321,-1.497 -3.321,-2.972 0,-1.031 0.76,-1.889 2.085,-1.964 l -0.25,-1.02 c -0.13,-0.509 -0.239,-0.922 -0.239,-0.955 0,-0.109 0.076,-0.12 0.129,-0.12 0.055,0 0.077,0.011 0.11,0.044 0.022,0.022 0.086,0.283 0.118,0.434 l 0.413,1.617 c 1.747,0.053 3.32,1.519 3.32,2.972 z m -2.429,1.727 -1.119,-4.461 c -0.65,0.033 -1.431,0.412 -1.431,1.498 0,1.302 0.932,2.821 2.55,2.963 z m 1.725,-1.499 c 0,-1.279 -0.933,-2.831 -2.561,-2.962 l 1.117,4.461 c 0.825,-0.044 1.444,-0.544 1.444,-1.499"
         style="fill:#000000;fill-opacity:1;fill-rule:nonzero;stroke:none"
         id="path3105"
         inkscape:connector-curvature="0" /><path
         d="m 136.65412,571.02622 c 0,0.217 -0.207,0.217 -0.36,0.217 l -1.725,0 c -1.519,0 -2.767,1.042 -2.897,2.495 l 4.622,0 c 0.153,0 0.36,0 0.36,0.218 0,0.217 -0.207,0.217 -0.36,0.217 l -4.622,0 c 0.13,1.475 1.411,2.495 2.886,2.495 l 1.736,0 c 0.153,0 0.36,0 0.36,0.217 0,0.217 -0.207,0.217 -0.36,0.217 l -1.769,0 c -1.735,0 -3.298,-1.323 -3.298,-3.146 0,-1.802 1.541,-3.147 3.309,-3.147 l 1.758,0 c 0.153,0 0.36,0 0.36,0.217"
         style="fill:#000000;fill-opacity:1;fill-rule:nonzero;stroke:none"
         id="path3107"
         inkscape:connector-curvature="0" /><path
         d="m 147.71312,576.18122 -0.305,2.44 -6.184,0 0,-0.336 0.261,0 c 0.834,0 0.856,-0.119 0.856,-0.509 l 0,-5.686 c 0,-0.391 -0.022,-0.511 -0.856,-0.511 l -0.261,0 0,-0.336 c 0.38,0.033 1.226,0.033 1.648,0.033 0.446,0 1.433,0 1.824,-0.033 l 0,0.336 -0.358,0 c -1.031,0 -1.031,0.142 -1.031,0.522 l 0,2.669 1.02,0 c 1.064,0 1.194,-0.336 1.194,-1.271 l 0.272,0 0,2.877 -0.272,0 c 0,-0.935 -0.13,-1.27 -1.194,-1.27 l -1.02,0 0,2.745 c 0,0.358 0.022,0.434 0.533,0.434 l 1.442,0 c 1.683,0 1.986,-0.586 2.159,-2.104 l 0.272,0"
         style="fill:#000000;fill-opacity:1;fill-rule:nonzero;stroke:none"
         id="path3109"
         inkscape:connector-curvature="0" /><path
         d="m 154.37412,574.01022 c 0,1.617 -1.291,2.963 -2.897,2.963 -1.616,0 -2.897,-1.346 -2.897,-2.963 0,-1.639 1.313,-2.919 2.897,-2.919 1.584,0 2.897,1.28 2.897,2.919 z m -0.933,0.119 c 0,-2.138 -1.194,-2.756 -1.964,-2.756 -0.77,0 -1.964,0.618 -1.964,2.756 0,2.041 1.237,2.572 1.964,2.572 0.739,0 1.964,-0.542 1.964,-2.572"
         style="fill:#000000;fill-opacity:1;fill-rule:nonzero;stroke:none"
         id="path3111"
         inkscape:connector-curvature="0" /><path
         d="m 161.46112,571.98122 c 0,0.054 0,0.162 -0.14,0.162 -0.121,0 -0.131,-0.097 -0.131,-0.141 -0.075,-0.662 -0.466,-0.671 -0.543,-0.671 -0.217,0 -0.314,0.14 -0.379,0.259 -0.086,0.173 -0.152,0.478 -0.293,1.172 -0.087,0.379 -0.195,0.933 -1.009,1.248 0.759,0.196 1.431,0.683 1.431,1.346 0,0.759 -0.965,1.464 -2.278,1.464 l -2.604,0 0,-0.271 c 0.728,0 0.781,-0.065 0.781,-0.511 l 0,-4.014 c 0,-0.445 -0.053,-0.509 -0.781,-0.509 l 0,-0.272 1.151,0.033 1.161,-0.033 0,0.272 c -0.728,0 -0.781,0.064 -0.781,0.509 l 0,1.888 0.976,0 c 0.271,0 0.553,-0.011 0.889,-0.347 0.229,-0.239 0.229,-0.499 0.229,-0.977 0,-0.607 0,-0.803 0.346,-1.139 0.196,-0.195 0.63,-0.358 1.118,-0.358 0.695,0 0.857,0.672 0.857,0.89 z m -1.996,3.375 c 0,-0.424 -0.054,-1.205 -1.465,-1.205 l -0.954,0 0,1.931 c 0,0.272 0.022,0.38 0.129,0.434 0.077,0.033 0.369,0.033 0.565,0.033 0.803,0 1.725,-0.033 1.725,-1.193"
         style="fill:#000000;fill-opacity:1;fill-rule:nonzero;stroke:none"
         id="path3113"
         inkscape:connector-curvature="0" /><path
         d="m 169.12212,571.24322 0,0.272 c -0.726,0 -0.781,0.064 -0.781,0.509 l 0,4.014 c 0,0.446 0.055,0.511 0.781,0.511 l 0,0.271 -1.312,0 c -0.25,0 -0.283,0 -0.369,-0.207 l -1.856,-4.556 -1.866,4.567 c -0.076,0.196 -0.142,0.196 -0.369,0.196 l -1.314,0 0,-0.271 c 0.729,0 0.782,-0.065 0.782,-0.511 l 0,-3.7 c 0,-0.248 0,-0.823 -0.782,-0.823 l 0,-0.272 0.935,0.033 c 0.162,0 0.661,-0.011 0.933,-0.033 l 0,0.272 c -0.782,0 -0.782,0.575 -0.782,0.823 l 0,4.08 0.011,0.011 2.028,-4.991 c 0.044,-0.098 0.099,-0.195 0.207,-0.195 0.109,0 0.162,0.097 0.206,0.195 l 2.062,5.068 0.011,-0.011 0,-4.471 c 0,-0.445 -0.054,-0.509 -0.781,-0.509 l 0,-0.272 1.128,0.033 c 0.38,0 0.771,-0.022 1.128,-0.033"
         style="fill:#000000;fill-opacity:1;fill-rule:nonzero;stroke:none"
         id="path3115"
         inkscape:connector-curvature="0" /><path
         d="m 175.91112,576.54922 0,0.271 c -0.27,-0.021 -0.845,-0.032 -0.911,-0.032 -0.303,0 -0.618,0.011 -0.921,0.032 l 0,-0.271 c 0.781,0 0.781,-0.575 0.781,-0.825 l 0,-2.55 c 0,-1.258 -0.935,-1.812 -1.672,-1.812 -0.325,0 -1.431,0.131 -1.431,1.758 l 0,2.918 c 0,0.446 0.053,0.511 0.781,0.511 l 0,0.271 -1.172,-0.032 -1.172,0.032 0,-0.271 c 0.738,0 0.781,-0.065 0.781,-0.531 l 0,-2.355 c 0,-0.272 0,-0.673 0.021,-0.814 0.098,-0.879 0.967,-1.758 2.17,-1.758 1.259,0 1.953,1.107 1.964,1.899 l 0,2.886 c 0.011,0.434 0.294,0.673 0.781,0.673"
         style="fill:#000000;fill-opacity:1;fill-rule:nonzero;stroke:none"
         id="path3117"
         inkscape:connector-curvature="0" /><path
         d="m 181.56012,573.34822 -0.272,0 c -0.086,-0.867 -0.195,-1.833 -1.714,-1.833 l -0.684,0 c -0.38,0 -0.433,0.031 -0.433,0.466 l 0,4.026 c 0,0.542 0.162,0.542 0.976,0.542 l 0,0.271 -1.336,-0.032 -1.203,0.032 0,-0.271 c 0.727,0 0.781,-0.065 0.781,-0.511 l 0,-4.014 c 0,-0.445 -0.054,-0.509 -0.781,-0.509 l 0,-0.272 4.46,0 0.206,2.105"
         style="fill:#000000;fill-opacity:1;fill-rule:nonzero;stroke:none"
         id="path3119"
         inkscape:connector-curvature="0" /><path
         d="m 188.31012,571.24322 0,0.272 c -0.608,0 -0.706,0.053 -0.847,0.433 l -1.866,4.818 c -0.065,0.174 -0.12,0.238 -0.239,0.238 -0.151,0 -0.173,-0.064 -0.228,-0.205 l -1.747,-4.483 c -0.118,-0.292 -0.303,-0.781 -0.987,-0.801 l 0,-0.272 c 0.239,0.022 0.553,0.033 0.792,0.033 l 0.9,-0.033 0,0.272 c -0.455,0.02 -0.488,0.391 -0.488,0.487 0,0.088 0,0.11 0.369,1.075 l 2.247,0 0.238,-0.607 c 0.087,-0.218 0.228,-0.586 0.228,-0.652 0,-0.303 -0.391,-0.303 -0.575,-0.303 l 0,-0.272 1.15,0.033 c 0.368,0 0.792,-0.022 1.053,-0.033 z m -2.203,2.105 -2.03,0 1.02,2.615 1.01,-2.615"
         style="fill:#000000;fill-opacity:1;fill-rule:nonzero;stroke:none"
         id="path3121"
         inkscape:connector-curvature="0" /><path
         d="m 128.45012,543.47122 c 0,1.194 -1.075,2.116 -2.875,2.116 l -4.525,0 0,-0.511 1.172,0 0,-6.424 -1.172,0 0,-0.509 c 0.413,0.033 1.475,0.033 1.943,0.033 0.465,0 1.529,0 1.942,-0.033 l 0,0.509 -1.172,0 0,2.768 1.92,0 c 1.508,0 2.767,0.781 2.767,2.051 z m -1.66,0 c 0,-0.77 0,-1.606 -1.638,-1.606 l -1.455,0 0,3.211 1.466,0 c 1.627,0 1.627,-0.824 1.627,-1.605"
         style="fill:#000000;fill-opacity:1;fill-rule:nonzero;stroke:none"
         id="path3123"
         inkscape:connector-curvature="0" /><path
         d="m 134.02212,542.13722 c 0,0.575 -0.586,0.889 -1.15,0.889 -0.759,0 -1.193,-0.542 -1.442,-1.227 l 0,1.227 -1.801,-0.088 0,-0.509 c 0.671,0 0.748,0 0.748,-0.423 l 0,-3.354 -0.748,0 0,-0.509 1.367,0.033 c 0.412,0 1.106,0 1.497,-0.033 l 0,0.509 -0.944,0 0,1.9 c 0,0.76 0.272,2.083 1.356,2.083 0,0 -0.206,-0.184 -0.206,-0.498 0,-0.446 0.347,-0.663 0.662,-0.663 0.314,0 0.661,0.228 0.661,0.663"
         style="fill:#000000;fill-opacity:1;fill-rule:nonzero;stroke:none"
         id="path3125"
         inkscape:connector-curvature="0" /><path
         d="m 140.30812,540.50922 c 0,1.453 -0.998,2.55 -2.767,2.55 -1.78,0 -2.767,-1.108 -2.767,-2.55 0,-1.346 0.955,-2.432 2.767,-2.432 1.824,0 2.767,1.097 2.767,2.432 z m -1.389,0.118 c 0,-0.943 0,-2.115 -1.378,-2.115 -1.378,0 -1.378,1.172 -1.378,2.115 0,0.489 0,1.043 0.184,1.411 0.207,0.402 0.663,0.63 1.194,0.63 0.456,0 0.911,-0.173 1.15,-0.553 0.228,-0.369 0.228,-0.966 0.228,-1.488"
         style="fill:#000000;fill-opacity:1;fill-rule:nonzero;stroke:none"
         id="path3127"
         inkscape:connector-curvature="0" /><path
         d="m 146.68212,542.45122 c 0,0.25 -0.185,0.63 -0.685,0.63 -0.162,0 -0.672,-0.033 -1.15,-0.413 -0.195,0.13 -0.65,0.358 -1.453,0.358 -1.562,0 -2.159,-0.847 -2.159,-1.606 0,-0.446 0.217,-0.889 0.564,-1.139 -0.303,-0.38 -0.369,-0.738 -0.369,-0.966 0,-0.163 0.044,-0.694 0.477,-1.042 -0.141,-0.033 -0.933,-0.26 -0.933,-0.944 0,-0.553 0.597,-1.367 2.767,-1.367 1.92,0 2.767,0.64 2.767,1.4 0,0.325 -0.087,1.009 -0.814,1.378 -0.608,0.303 -1.259,0.303 -2.3,0.303 -0.283,0 -0.781,0 -0.836,0.011 -0.476,0.077 -0.597,0.489 -0.597,0.684 0,0.108 0.044,0.271 0.11,0.358 0.498,-0.261 1.051,-0.283 1.323,-0.283 1.563,0 2.16,0.847 2.16,1.607 0,0.511 -0.272,0.868 -0.435,1.042 0.325,0.173 0.553,0.195 0.674,0.206 -0.022,-0.055 -0.044,-0.152 -0.044,-0.217 0,-0.272 0.184,-0.467 0.466,-0.467 0.282,0 0.467,0.206 0.467,0.467 z m -2.333,-1.031 c 0,-0.488 0,-1.216 -0.955,-1.216 -0.954,0 -0.954,0.728 -0.954,1.216 0,0.489 0,1.215 0.954,1.215 0.955,0 0.955,-0.726 0.955,-1.215 z m 1.226,-4.091 c 0,-0.391 -0.423,-0.977 -1.834,-0.977 -1.301,0 -1.834,0.5 -1.834,0.999 0,0.651 0.684,0.651 0.836,0.651 l 1.27,0 c 0.336,0 1.562,0 1.562,-0.673"
         style="fill:#000000;fill-opacity:1;fill-rule:nonzero;stroke:none"
         id="path3129"
         inkscape:connector-curvature="0" /><path
         d="m 151.72212,542.13722 c 0,0.575 -0.586,0.889 -1.15,0.889 -0.759,0 -1.193,-0.542 -1.442,-1.227 l 0,1.227 -1.801,-0.088 0,-0.509 c 0.671,0 0.748,0 0.748,-0.423 l 0,-3.354 -0.748,0 0,-0.509 1.367,0.033 c 0.412,0 1.106,0 1.497,-0.033 l 0,0.509 -0.944,0 0,1.9 c 0,0.76 0.272,2.083 1.356,2.083 0,0 -0.206,-0.184 -0.206,-0.498 0,-0.446 0.347,-0.663 0.662,-0.663 0.314,0 0.661,0.228 0.661,0.663"
         style="fill:#000000;fill-opacity:1;fill-rule:nonzero;stroke:none"
         id="path3131"
         inkscape:connector-curvature="0" /><path
         d="m 158.12712,538.40422 c 0,0.248 -0.141,0.248 -0.281,0.248 -0.663,0.011 -0.663,0.154 -0.663,0.402 l 0,2.333 c 0,0.965 -0.77,1.672 -2.387,1.672 -0.619,0 -1.942,-0.044 -1.942,-0.999 0,-0.478 0.379,-0.684 0.673,-0.684 0.336,0 0.683,0.228 0.683,0.684 0,0.325 -0.206,0.51 -0.238,0.531 0.303,0.066 0.65,0.077 0.782,0.077 0.812,0 1.192,-0.456 1.192,-1.281 l 0,-0.369 c -0.771,-0.033 -3.527,-0.13 -3.527,-1.703 0,-1.042 1.347,-1.238 2.096,-1.238 0.867,0 1.378,0.446 1.615,0.902 0,-0.338 0,-0.836 1.13,-0.836 l 0.52,0 c 0.217,0 0.347,0 0.347,0.261 z m -2.181,1.247 c 0,-1.041 -0.997,-1.183 -1.269,-1.183 -0.553,0 -0.987,0.38 -0.987,0.858 0,1.172 1.714,1.323 2.256,1.356 l 0,-1.031"
         style="fill:#000000;fill-opacity:1;fill-rule:nonzero;stroke:none"
         id="path3133"
         inkscape:connector-curvature="0" /><path
         d="m 168.37212,538.14322 0,0.509 -0.748,0 0,2.811 c 0,1.118 -0.553,1.563 -1.672,1.563 -0.987,0 -1.552,-0.542 -1.833,-1.042 -0.217,1.009 -1.215,1.042 -1.628,1.042 -0.944,0 -1.562,-0.489 -1.909,-1.172 l 0,1.172 -1.867,-0.088 0,-0.509 c 0.673,0 0.75,0 0.75,-0.423 l 0,-3.354 -0.75,0 0,-0.509 1.367,0.033 1.367,-0.033 0,0.509 -0.749,0 0,2.269 c 0,1.183 0.944,1.714 1.618,1.714 0.368,0 0.607,-0.217 0.607,-1.053 l 0,-2.93 -0.748,0 0,-0.509 1.367,0.033 1.367,-0.033 0,0.509 -0.748,0 0,2.269 c 0,1.183 0.944,1.714 1.616,1.714 0.368,0 0.607,-0.217 0.607,-1.053 l 0,-2.93 -0.748,0 0,-0.509 1.367,0.033 1.367,-0.033"
         style="fill:#000000;fill-opacity:1;fill-rule:nonzero;stroke:none"
         id="path3135"
         inkscape:connector-curvature="0" /><path
         d="m 179.05512,540.34622 c 0,1.205 -0.878,2.083 -1.865,2.289 l -1.574,0.336 c -0.434,0.099 -1.042,0.467 -1.042,1.128 0,0.467 0.303,1.141 1.389,1.141 0.867,0 1.964,-0.369 2.214,-1.845 0.042,-0.261 0.042,-0.282 0.27,-0.282 0.261,0 0.261,0.053 0.261,0.303 l 0,1.986 c 0,0.207 0,0.304 -0.195,0.304 -0.088,0 -0.098,-0.011 -0.217,-0.119 l -0.489,-0.478 c -0.628,0.5 -1.335,0.597 -1.855,0.597 -1.65,0 -2.431,-1.041 -2.431,-2.182 0,-0.704 0.359,-1.203 0.586,-1.442 0.533,-0.531 0.901,-0.608 2.084,-0.869 0.955,-0.206 1.139,-0.239 1.378,-0.465 0.163,-0.164 0.433,-0.446 0.433,-0.946 0,-0.52 -0.281,-1.268 -1.409,-1.268 -0.825,0 -2.475,0.217 -2.561,1.834 -0.011,0.195 -0.011,0.248 -0.25,0.248 -0.261,0 -0.261,-0.064 -0.261,-0.314 l 0,-1.975 c 0,-0.206 0,-0.303 0.195,-0.303 0.099,0 0.12,0.022 0.206,0.097 l 0.5,0.5 c 0.716,-0.533 1.725,-0.597 2.171,-0.597 1.79,0 2.462,1.225 2.462,2.322"
         style="fill:#000000;fill-opacity:1;fill-rule:nonzero;stroke:none"
         id="path3137"
         inkscape:connector-curvature="0" /><path
         d="m 183.97212,539.48822 0,0.575 -0.511,0 0,-0.553 c 0,-0.737 -0.346,-0.998 -0.65,-0.998 -0.629,0 -0.629,0.695 -0.629,0.944 l 0,2.995 1.584,0 0,0.509 -1.584,0 0,2.074 -0.51,0 c -0.011,-1.086 -0.543,-2.16 -1.617,-2.193 l 0,-0.39 0.889,0 0,-2.974 c 0,-1.161 0.944,-1.4 1.714,-1.4 0.825,0 1.314,0.619 1.314,1.411"
         style="fill:#000000;fill-opacity:1;fill-rule:nonzero;stroke:none"
         id="path3139"
         inkscape:connector-curvature="0" /><path
         d="m 190.72712,538.40422 c 0,0.248 -0.141,0.248 -0.281,0.248 -0.663,0.011 -0.663,0.154 -0.663,0.402 l 0,2.333 c 0,0.965 -0.77,1.672 -2.387,1.672 -0.619,0 -1.942,-0.044 -1.942,-0.999 0,-0.478 0.379,-0.684 0.673,-0.684 0.336,0 0.683,0.228 0.683,0.684 0,0.325 -0.206,0.51 -0.238,0.531 0.303,0.066 0.65,0.077 0.782,0.077 0.812,0 1.192,-0.456 1.192,-1.281 l 0,-0.369 c -0.771,-0.033 -3.527,-0.13 -3.527,-1.703 0,-1.042 1.347,-1.238 2.096,-1.238 0.867,0 1.378,0.446 1.615,0.902 0,-0.338 0,-0.836 1.13,-0.836 l 0.52,0 c 0.217,0 0.347,0 0.347,0.261 z m -2.181,1.247 c 0,-1.041 -0.997,-1.183 -1.269,-1.183 -0.553,0 -0.987,0.38 -0.987,0.858 0,1.172 1.714,1.323 2.256,1.356 l 0,-1.031"
         style="fill:#000000;fill-opacity:1;fill-rule:nonzero;stroke:none"
         id="path3141"
         inkscape:connector-curvature="0" /><path
         d="m 194.97212,539.48822 0,0.575 -0.511,0 0,-0.553 c 0,-0.737 -0.346,-0.998 -0.65,-0.998 -0.629,0 -0.629,0.695 -0.629,0.944 l 0,2.995 1.584,0 0,0.509 -1.584,0 0,2.074 -0.51,0 c -0.011,-1.086 -0.543,-2.16 -1.617,-2.193 l 0,-0.39 0.889,0 0,-2.974 c 0,-1.161 0.944,-1.4 1.714,-1.4 0.825,0 1.314,0.619 1.314,1.411"
         style="fill:#000000;fill-opacity:1;fill-rule:nonzero;stroke:none"
         id="path3143"
         inkscape:connector-curvature="0" /><path
         d="m 200.98812,539.41222 c 0,0.195 -0.206,0.195 -0.261,0.195 -0.184,0 -0.206,-0.053 -0.272,-0.226 -0.228,-0.522 -0.845,-0.869 -1.551,-0.869 -1.53,0 -1.541,1.444 -1.541,1.997 l 3.277,0 c 0.239,0 0.348,0 0.348,0.292 0,0.337 -0.066,1.13 -0.608,1.672 -0.401,0.39 -0.976,0.586 -1.726,0.586 -1.736,0 -2.68,-1.118 -2.68,-2.475 0,-1.453 1.086,-2.507 2.833,-2.507 1.714,0 2.181,1.15 2.181,1.335 z m -1.031,1.454 -2.594,0 c 0.022,0.424 0.033,0.88 0.261,1.238 0.281,0.433 0.716,0.564 1.03,0.564 1.27,0 1.292,-1.422 1.303,-1.802"
         style="fill:#000000;fill-opacity:1;fill-rule:nonzero;stroke:none"
         id="path3145"
         inkscape:connector-curvature="0" /><path
         d="m 126.77912,526.05922 c 0,0.261 -0.227,0.261 -0.433,0.261 l -3.636,0 c -0.238,0 -0.65,0 -1.128,-0.51 -0.38,-0.423 -0.663,-0.923 -0.663,-0.976 0,0 0,-0.11 0.131,-0.11 0.086,0 0.108,0.044 0.174,0.132 0.531,0.834 1.161,0.834 1.378,0.834 l 0.619,0 c -0.349,-1.313 -0.935,-2.625 -1.389,-3.613 -0.088,-0.162 -0.088,-0.184 -0.088,-0.261 0,-0.206 0.174,-0.292 0.316,-0.292 0.325,0 0.412,0.303 0.542,0.705 0.152,0.498 0.152,0.52 0.292,1.064 l 0.608,2.397 1.227,0 c -0.358,-1.606 -0.457,-2.072 -0.457,-2.799 0,-0.164 0,-0.456 0.088,-0.825 0.108,-0.478 0.228,-0.542 0.39,-0.542 0.218,0 0.446,0.196 0.446,0.411 0,0.066 0,0.088 -0.066,0.239 -0.314,0.782 -0.314,1.488 -0.314,1.791 0,0.575 0.075,1.161 0.195,1.725 l 1.236,0 c 0.141,0 0.532,0 0.532,0.369"
         style="fill:#000000;fill-opacity:1;fill-rule:nonzero;stroke:none"
         id="path3147"
         inkscape:connector-curvature="0" /><path
         d="m 136.65412,521.42622 c 0,0.217 -0.207,0.217 -0.36,0.217 l -1.725,0 c -1.519,0 -2.767,1.042 -2.897,2.495 l 4.622,0 c 0.153,0 0.36,0 0.36,0.218 0,0.217 -0.207,0.217 -0.36,0.217 l -4.622,0 c 0.13,1.475 1.411,2.495 2.886,2.495 l 1.736,0 c 0.153,0 0.36,0 0.36,0.217 0,0.217 -0.207,0.217 -0.36,0.217 l -1.769,0 c -1.735,0 -3.298,-1.323 -3.298,-3.146 0,-1.802 1.541,-3.147 3.309,-3.147 l 1.758,0 c 0.153,0 0.36,0 0.36,0.217"
         style="fill:#000000;fill-opacity:1;fill-rule:nonzero;stroke:none"
         id="path3149"
         inkscape:connector-curvature="0" /><path
         d="m 147.88612,527.03522 c 0,1.075 -1.15,2.019 -2.679,2.019 l -3.961,0 0,-0.336 0.259,0 c 0.836,0 0.858,-0.12 0.858,-0.511 l 0,-5.717 c 0,-0.391 -0.022,-0.511 -0.858,-0.511 l -0.259,0 0,-0.336 c 0.379,0.033 1.183,0.033 1.595,0.033 0.413,0 1.225,0 1.605,-0.033 l 0,0.336 -0.26,0 c -0.836,0 -0.857,0.12 -0.857,0.511 l 0,2.581 1.964,0 c 1.323,0 2.593,0.847 2.593,1.964 z m -1.117,0 c 0,-0.465 0,-1.681 -1.845,-1.681 l -1.628,0 0,2.93 c 0,0.357 0.022,0.434 0.533,0.434 l 1.095,0 c 1.845,0 1.845,-1.194 1.845,-1.683"
         style="fill:#000000;fill-opacity:1;fill-rule:nonzero;stroke:none"
         id="path3151"
         inkscape:connector-curvature="0" /><path
         d="m 155.16112,522.38122 c 0,0.054 0,0.162 -0.14,0.162 -0.121,0 -0.131,-0.097 -0.131,-0.141 -0.075,-0.662 -0.466,-0.671 -0.543,-0.671 -0.217,0 -0.314,0.14 -0.379,0.259 -0.086,0.173 -0.152,0.478 -0.293,1.172 -0.087,0.379 -0.195,0.933 -1.009,1.248 0.759,0.196 1.431,0.683 1.431,1.346 0,0.759 -0.965,1.464 -2.278,1.464 l -2.604,0 0,-0.271 c 0.728,0 0.781,-0.065 0.781,-0.511 l 0,-4.014 c 0,-0.445 -0.053,-0.509 -0.781,-0.509 l 0,-0.272 1.151,0.033 1.161,-0.033 0,0.272 c -0.728,0 -0.781,0.064 -0.781,0.509 l 0,1.888 0.976,0 c 0.271,0 0.553,-0.011 0.889,-0.347 0.229,-0.239 0.229,-0.499 0.229,-0.977 0,-0.607 0,-0.803 0.346,-1.139 0.196,-0.195 0.63,-0.358 1.118,-0.358 0.695,0 0.857,0.672 0.857,0.89 z m -1.996,3.375 c 0,-0.424 -0.054,-1.205 -1.465,-1.205 l -0.954,0 0,1.931 c 0,0.272 0.022,0.38 0.129,0.434 0.077,0.033 0.369,0.033 0.565,0.033 0.803,0 1.725,-0.033 1.725,-1.193"
         style="fill:#000000;fill-opacity:1;fill-rule:nonzero;stroke:none"
         id="path3153"
         inkscape:connector-curvature="0" /><path
         d="m 161.37412,524.41022 c 0,1.617 -1.291,2.963 -2.897,2.963 -1.616,0 -2.897,-1.346 -2.897,-2.963 0,-1.639 1.313,-2.919 2.897,-2.919 1.584,0 2.897,1.28 2.897,2.919 z m -0.933,0.119 c 0,-2.138 -1.194,-2.756 -1.964,-2.756 -0.77,0 -1.964,0.618 -1.964,2.756 0,2.041 1.237,2.572 1.964,2.572 0.739,0 1.964,-0.542 1.964,-2.572"
         style="fill:#000000;fill-opacity:1;fill-rule:nonzero;stroke:none"
         id="path3155"
         inkscape:connector-curvature="0" /><path
         d="m 168.38312,523.61822 0,0.27 c -0.358,-0.02 -0.792,-0.031 -1.075,-0.031 -0.39,0 -1.018,0 -1.398,0.031 l 0,-0.27 0.215,0 c 0.825,0 0.869,-0.12 0.869,-0.553 l 0,-0.327 c 0,-0.248 0,-0.509 -0.434,-0.759 -0.239,-0.141 -0.608,-0.217 -0.922,-0.217 -0.663,0 -2.225,0.359 -2.225,2.67 0,2.377 1.639,2.669 2.17,2.669 0.792,0 1.705,-0.564 1.91,-1.942 0.022,-0.077 0.032,-0.141 0.142,-0.141 0.14,0 0.14,0.053 0.14,0.259 l 0,1.835 c 0,0.173 0,0.261 -0.107,0.261 -0.066,0 -0.077,-0.022 -0.164,-0.132 l -0.422,-0.553 c -0.402,0.446 -0.977,0.685 -1.574,0.685 -1.617,0 -3.028,-1.282 -3.028,-2.941 0,-1.617 1.356,-2.941 3.05,-2.941 0.38,0 1.181,0.055 1.605,0.65 0.098,-0.151 0.423,-0.487 0.544,-0.487 0.096,0 0.096,0.086 0.096,0.25 l 0,1.225 c 0,0.423 0.044,0.489 0.608,0.489"
         style="fill:#000000;fill-opacity:1;fill-rule:nonzero;stroke:none"
         id="path3157"
         inkscape:connector-curvature="0" /><path
         d="m 175.36112,522.38122 c 0,0.054 0,0.162 -0.14,0.162 -0.121,0 -0.131,-0.097 -0.131,-0.141 -0.075,-0.662 -0.466,-0.671 -0.543,-0.671 -0.217,0 -0.314,0.14 -0.379,0.259 -0.086,0.173 -0.152,0.478 -0.293,1.172 -0.087,0.379 -0.195,0.933 -1.009,1.248 0.759,0.196 1.431,0.683 1.431,1.346 0,0.759 -0.965,1.464 -2.278,1.464 l -2.604,0 0,-0.271 c 0.728,0 0.781,-0.065 0.781,-0.511 l 0,-4.014 c 0,-0.445 -0.053,-0.509 -0.781,-0.509 l 0,-0.272 1.151,0.033 1.161,-0.033 0,0.272 c -0.728,0 -0.781,0.064 -0.781,0.509 l 0,1.888 0.976,0 c 0.271,0 0.553,-0.011 0.889,-0.347 0.229,-0.239 0.229,-0.499 0.229,-0.977 0,-0.607 0,-0.803 0.346,-1.139 0.196,-0.195 0.63,-0.358 1.118,-0.358 0.695,0 0.857,0.672 0.857,0.89 z m -1.996,3.375 c 0,-0.424 -0.054,-1.205 -1.465,-1.205 l -0.954,0 0,1.931 c 0,0.272 0.022,0.38 0.129,0.434 0.077,0.033 0.369,0.033 0.565,0.033 0.803,0 1.725,-0.033 1.725,-1.193"
         style="fill:#000000;fill-opacity:1;fill-rule:nonzero;stroke:none"
         id="path3159"
         inkscape:connector-curvature="0" /><path
         d="m 181.81012,521.64322 0,0.272 c -0.608,0 -0.706,0.053 -0.847,0.433 l -1.866,4.818 c -0.065,0.174 -0.12,0.238 -0.239,0.238 -0.151,0 -0.173,-0.064 -0.228,-0.205 l -1.747,-4.483 c -0.118,-0.292 -0.303,-0.781 -0.987,-0.801 l 0,-0.272 c 0.239,0.022 0.553,0.033 0.792,0.033 l 0.9,-0.033 0,0.272 c -0.455,0.02 -0.488,0.391 -0.488,0.487 0,0.088 0,0.11 0.369,1.075 l 2.247,0 0.238,-0.607 c 0.087,-0.218 0.228,-0.586 0.228,-0.652 0,-0.303 -0.391,-0.303 -0.575,-0.303 l 0,-0.272 1.15,0.033 c 0.368,0 0.792,-0.022 1.053,-0.033 z m -2.203,2.105 -2.03,0 1.02,2.615 1.01,-2.615"
         style="fill:#000000;fill-opacity:1;fill-rule:nonzero;stroke:none"
         id="path3161"
         inkscape:connector-curvature="0" /><path
         d="m 189.82212,521.64322 0,0.272 c -0.726,0 -0.781,0.064 -0.781,0.509 l 0,4.014 c 0,0.446 0.055,0.511 0.781,0.511 l 0,0.271 -1.312,0 c -0.25,0 -0.283,0 -0.369,-0.207 l -1.856,-4.556 -1.866,4.567 c -0.076,0.196 -0.142,0.196 -0.369,0.196 l -1.314,0 0,-0.271 c 0.729,0 0.782,-0.065 0.782,-0.511 l 0,-3.7 c 0,-0.248 0,-0.823 -0.782,-0.823 l 0,-0.272 0.935,0.033 c 0.162,0 0.661,-0.011 0.933,-0.033 l 0,0.272 c -0.782,0 -0.782,0.575 -0.782,0.823 l 0,4.08 0.011,0.011 2.028,-4.991 c 0.044,-0.098 0.099,-0.195 0.207,-0.195 0.109,0 0.162,0.097 0.206,0.195 l 2.062,5.068 0.011,-0.011 0,-4.471 c 0,-0.445 -0.054,-0.509 -0.781,-0.509 l 0,-0.272 1.128,0.033 c 0.38,0 0.771,-0.022 1.128,-0.033"
         style="fill:#000000;fill-opacity:1;fill-rule:nonzero;stroke:none"
         id="path3163"
         inkscape:connector-curvature="0" /><path
         d="m 196.16512,523.65122 c 0,0.867 -0.521,1.898 -1.715,2.19 l -1.476,0.36 c -0.944,0.226 -1.172,0.976 -1.172,1.367 0,0.738 0.619,1.42 1.542,1.42 1.497,0 2.072,-1.095 2.224,-2.201 0.022,-0.142 0.022,-0.196 0.14,-0.196 0.142,0 0.142,0.054 0.142,0.26 l 0,2.181 c 0,0.184 0,0.261 -0.12,0.261 -0.075,0 -0.075,-0.011 -0.162,-0.141 l -0.402,-0.64 c -0.292,0.292 -0.792,0.781 -1.833,0.781 -1.259,0 -2.225,-0.955 -2.225,-2.105 0,-0.695 0.369,-1.182 0.51,-1.347 0.511,-0.531 0.836,-0.606 1.736,-0.823 0.175,-0.044 0.359,-0.077 0.532,-0.12 0.639,-0.152 0.857,-0.207 1.194,-0.575 0.064,-0.075 0.391,-0.444 0.391,-1.03 0,-0.772 -0.575,-1.553 -1.563,-1.553 -0.456,0 -1.183,0.087 -1.779,0.555 -0.707,0.553 -0.738,1.345 -0.749,1.714 -0.011,0.075 -0.076,0.097 -0.131,0.097 -0.141,0 -0.141,-0.075 -0.141,-0.271 l 0,-2.17 c 0,-0.184 0,-0.261 0.119,-0.261 0.077,0 0.098,0.033 0.164,0.131 l 0.4,0.65 c 0.305,-0.314 1.009,-0.781 2.128,-0.781 1.356,0 2.246,1.097 2.246,2.247"
         style="fill:#000000;fill-opacity:1;fill-rule:nonzero;stroke:none"
         id="path3165"
         inkscape:connector-curvature="0" /><path
         d="m 203.04912,525.32122 -0.152,1.835 -5.328,0 -0.151,-1.835 0.272,0 c 0.096,1.367 0.314,1.563 1.518,1.563 0.608,0 0.641,0 0.641,-0.466 l 0,-3.95 c 0,-0.434 -0.044,-0.553 -0.88,-0.553 l -0.228,0 0,-0.272 c 0.424,0.033 1.064,0.033 1.499,0.033 0.432,0 1.073,0 1.496,-0.033 l 0,0.272 -0.228,0 c -0.836,0 -0.878,0.119 -0.878,0.553 l 0,3.95 c 0,0.466 0.031,0.466 0.639,0.466 1.172,0 1.411,-0.185 1.51,-1.563 l 0.27,0"
         style="fill:#000000;fill-opacity:1;fill-rule:nonzero;stroke:none"
         id="path3167"
         inkscape:connector-curvature="0" /><path
         d="m 209.01012,521.64322 0,0.272 c -0.608,0 -0.706,0.053 -0.847,0.433 l -1.866,4.818 c -0.065,0.174 -0.12,0.238 -0.239,0.238 -0.151,0 -0.173,-0.064 -0.228,-0.205 l -1.747,-4.483 c -0.118,-0.292 -0.303,-0.781 -0.987,-0.801 l 0,-0.272 c 0.239,0.022 0.553,0.033 0.792,0.033 l 0.9,-0.033 0,0.272 c -0.455,0.02 -0.488,0.391 -0.488,0.487 0,0.088 0,0.11 0.369,1.075 l 2.247,0 0.238,-0.607 c 0.087,-0.218 0.228,-0.586 0.228,-0.652 0,-0.303 -0.391,-0.303 -0.575,-0.303 l 0,-0.272 1.15,0.033 c 0.368,0 0.792,-0.022 1.053,-0.033 z m -2.203,2.105 -2.03,0 1.02,2.615 1.01,-2.615"
         style="fill:#000000;fill-opacity:1;fill-rule:nonzero;stroke:none"
         id="path3169"
         inkscape:connector-curvature="0" /><path
         d="m 214.74912,525.32122 -0.152,1.835 -5.328,0 -0.151,-1.835 0.272,0 c 0.096,1.367 0.314,1.563 1.518,1.563 0.608,0 0.641,0 0.641,-0.466 l 0,-3.95 c 0,-0.434 -0.044,-0.553 -0.88,-0.553 l -0.228,0 0,-0.272 c 0.424,0.033 1.064,0.033 1.499,0.033 0.432,0 1.073,0 1.496,-0.033 l 0,0.272 -0.228,0 c -0.836,0 -0.878,0.119 -0.878,0.553 l 0,3.95 c 0,0.466 0.031,0.466 0.639,0.466 1.172,0 1.411,-0.185 1.51,-1.563 l 0.27,0"
         style="fill:#000000;fill-opacity:1;fill-rule:nonzero;stroke:none"
         id="path3171"
         inkscape:connector-curvature="0" /><path
         d="m 220.86812,523.74822 -0.272,0 c -0.185,-1.313 -0.446,-1.833 -1.835,-1.833 l -1.171,0 c -0.38,0 -0.433,0.031 -0.433,0.466 l 0,2.007 0.759,0 c 0.803,0 0.933,-0.217 0.933,-0.943 l 0.272,0 0,2.159 -0.272,0 c 0,-0.728 -0.13,-0.944 -0.933,-0.944 l -0.759,0 0,1.789 c 0,0.435 0.053,0.467 0.433,0.467 l 1.107,0 c 1.258,0 1.541,-0.379 1.66,-1.562 l 0.272,0 -0.207,1.834 -4.828,0 0,-0.272 c 0.727,0 0.781,-0.065 0.781,-0.509 l 0,-3.983 c 0,-0.445 -0.054,-0.509 -0.781,-0.509 l 0,-0.272 4.958,0 0.316,2.105"
         style="fill:#000000;fill-opacity:1;fill-rule:nonzero;stroke:none"
         id="path3173"
         inkscape:connector-curvature="0" /><path
         d="m 126.85512,490.74622 c 0,1.205 -0.878,2.083 -1.865,2.289 l -1.574,0.336 c -0.434,0.099 -1.042,0.467 -1.042,1.128 0,0.467 0.303,1.141 1.389,1.141 0.867,0 1.964,-0.369 2.214,-1.845 0.042,-0.261 0.042,-0.282 0.27,-0.282 0.261,0 0.261,0.053 0.261,0.303 l 0,1.986 c 0,0.207 0,0.304 -0.195,0.304 -0.088,0 -0.098,-0.011 -0.217,-0.119 l -0.489,-0.478 c -0.628,0.5 -1.335,0.597 -1.855,0.597 -1.65,0 -2.431,-1.041 -2.431,-2.182 0,-0.704 0.359,-1.203 0.586,-1.442 0.533,-0.531 0.901,-0.608 2.084,-0.869 0.955,-0.206 1.139,-0.239 1.378,-0.465 0.163,-0.164 0.433,-0.446 0.433,-0.946 0,-0.52 -0.281,-1.268 -1.409,-1.268 -0.825,0 -2.475,0.217 -2.561,1.834 -0.011,0.195 -0.011,0.248 -0.25,0.248 -0.261,0 -0.261,-0.064 -0.261,-0.314 l 0,-1.975 c 0,-0.206 0,-0.303 0.195,-0.303 0.099,0 0.12,0.022 0.206,0.097 l 0.5,0.5 c 0.716,-0.533 1.725,-0.597 2.171,-0.597 1.79,0 2.462,1.225 2.462,2.322"
         style="fill:#000000;fill-opacity:1;fill-rule:nonzero;stroke:none"
         id="path3175"
         inkscape:connector-curvature="0" /><path
         d="m 132.98812,489.81222 c 0,0.195 -0.206,0.195 -0.261,0.195 -0.184,0 -0.206,-0.053 -0.272,-0.226 -0.228,-0.522 -0.845,-0.869 -1.551,-0.869 -1.53,0 -1.541,1.444 -1.541,1.997 l 3.277,0 c 0.239,0 0.348,0 0.348,0.292 0,0.337 -0.066,1.13 -0.608,1.672 -0.401,0.39 -0.976,0.586 -1.726,0.586 -1.736,0 -2.68,-1.118 -2.68,-2.475 0,-1.453 1.086,-2.507 2.833,-2.507 1.714,0 2.181,1.15 2.181,1.335 z m -1.031,1.454 -2.594,0 c 0.022,0.424 0.033,0.88 0.261,1.238 0.281,0.433 0.716,0.564 1.03,0.564 1.27,0 1.292,-1.422 1.303,-1.802"
         style="fill:#000000;fill-opacity:1;fill-rule:nonzero;stroke:none"
         id="path3177"
         inkscape:connector-curvature="0" /><path
         d="m 143.57212,488.54322 0,0.509 -0.748,0 0,2.811 c 0,1.118 -0.553,1.563 -1.672,1.563 -0.987,0 -1.552,-0.542 -1.833,-1.042 -0.217,1.009 -1.215,1.042 -1.628,1.042 -0.944,0 -1.562,-0.489 -1.909,-1.172 l 0,1.172 -1.867,-0.088 0,-0.509 c 0.673,0 0.75,0 0.75,-0.423 l 0,-3.354 -0.75,0 0,-0.509 1.367,0.033 1.367,-0.033 0,0.509 -0.749,0 0,2.269 c 0,1.183 0.944,1.714 1.618,1.714 0.368,0 0.607,-0.217 0.607,-1.053 l 0,-2.93 -0.748,0 0,-0.509 1.367,0.033 1.367,-0.033 0,0.509 -0.748,0 0,2.269 c 0,1.183 0.944,1.714 1.616,1.714 0.368,0 0.607,-0.217 0.607,-1.053 l 0,-2.93 -0.748,0 0,-0.509 1.367,0.033 1.367,-0.033"
         style="fill:#000000;fill-opacity:1;fill-rule:nonzero;stroke:none"
         id="path3179"
         inkscape:connector-curvature="0" /><path
         d="m 149.82712,488.80422 c 0,0.248 -0.141,0.248 -0.281,0.248 -0.663,0.011 -0.663,0.154 -0.663,0.402 l 0,2.333 c 0,0.965 -0.77,1.672 -2.387,1.672 -0.619,0 -1.942,-0.044 -1.942,-0.999 0,-0.478 0.379,-0.684 0.673,-0.684 0.336,0 0.683,0.228 0.683,0.684 0,0.325 -0.206,0.51 -0.238,0.531 0.303,0.066 0.65,0.077 0.782,0.077 0.812,0 1.192,-0.456 1.192,-1.281 l 0,-0.369 c -0.771,-0.033 -3.527,-0.13 -3.527,-1.703 0,-1.042 1.347,-1.238 2.096,-1.238 0.867,0 1.378,0.446 1.615,0.902 0,-0.338 0,-0.836 1.13,-0.836 l 0.52,0 c 0.217,0 0.347,0 0.347,0.261 z m -2.181,1.247 c 0,-1.041 -0.997,-1.183 -1.269,-1.183 -0.553,0 -0.987,0.38 -0.987,0.858 0,1.172 1.714,1.323 2.256,1.356 l 0,-1.031"
         style="fill:#000000;fill-opacity:1;fill-rule:nonzero;stroke:none"
         id="path3181"
         inkscape:connector-curvature="0" /><path
         d="m 156.60012,488.54322 0,0.509 -0.748,0 0,2.811 c 0,1.139 -0.586,1.563 -1.672,1.563 -1.04,0 -1.617,-0.619 -1.898,-1.172 l 0,1.172 -1.867,-0.088 0,-0.509 c 0.673,0 0.75,0 0.75,-0.423 l 0,-3.354 -0.75,0 0,-0.509 1.367,0.033 1.367,-0.033 0,0.509 -0.749,0 0,2.269 c 0,1.183 0.935,1.714 1.618,1.714 0.368,0 0.597,-0.228 0.597,-1.053 l 0,-2.93 -0.749,0 0,-0.509 1.367,0.033 1.367,-0.033"
         style="fill:#000000;fill-opacity:1;fill-rule:nonzero;stroke:none"
         id="path3183"
         inkscape:connector-curvature="0" /><path
         d="m 160.67212,489.88822 0,0.575 -0.511,0 0,-0.553 c 0,-0.737 -0.346,-0.998 -0.65,-0.998 -0.629,0 -0.629,0.695 -0.629,0.944 l 0,2.995 1.584,0 0,0.509 -1.584,0 0,2.074 -0.51,0 c -0.011,-1.086 -0.543,-2.16 -1.617,-2.193 l 0,-0.39 0.889,0 0,-2.974 c 0,-1.161 0.944,-1.4 1.714,-1.4 0.825,0 1.314,0.619 1.314,1.411"
         style="fill:#000000;fill-opacity:1;fill-rule:nonzero;stroke:none"
         id="path3185"
         inkscape:connector-curvature="0" /><path
         d="m 164.53012,488.54322 0,0.509 -0.672,0 0,4.374 -1.889,-0.088 0,-0.509 c 0.641,0 0.717,0 0.717,-0.423 l 0,-3.354 -0.75,0 0,-0.509 1.325,0.033 1.269,-0.033 z m -0.52,6.586 c 0,0.467 -0.38,0.847 -0.847,0.847 -0.467,0 -0.847,-0.38 -0.847,-0.847 0,-0.466 0.38,-0.845 0.847,-0.845 0.467,0 0.847,0.379 0.847,0.845"
         style="fill:#000000;fill-opacity:1;fill-rule:nonzero;stroke:none"
         id="path3187"
         inkscape:connector-curvature="0" /><path
         d="m 170.11312,489.81222 c 0,0.153 -0.152,0.153 -0.259,0.153 -0.196,0 -0.207,-0.022 -0.261,-0.163 -0.282,-0.684 -0.803,-0.89 -1.357,-0.89 -1.507,0 -1.507,1.595 -1.507,2.094 0,0.607 0,2.018 1.4,2.018 0.379,0 0.564,-0.033 0.704,-0.065 -0.195,-0.174 -0.217,-0.402 -0.217,-0.499 0,-0.478 0.38,-0.684 0.674,-0.684 0.335,0 0.682,0.228 0.682,0.684 0,0.933 -1.257,0.999 -1.887,0.999 -1.942,0 -2.745,-1.249 -2.745,-2.507 0,-1.443 1.02,-2.475 2.69,-2.475 1.758,0 2.083,1.26 2.083,1.335"
         style="fill:#000000;fill-opacity:1;fill-rule:nonzero;stroke:none"
         id="path3189"
         inkscape:connector-curvature="0" /><path
         d="m 175.03012,490.06222 c 0,0.467 -0.217,0.847 -0.597,1.15 -0.423,0.315 -0.77,0.379 -1.617,0.522 -0.401,0.075 -1.106,0.195 -1.106,0.704 0,0.674 1.009,0.674 1.215,0.674 0.815,0 1.225,-0.316 1.28,-0.913 0.011,-0.162 0.022,-0.217 0.25,-0.217 0.261,0 0.261,0.055 0.261,0.305 l 0,0.867 c 0,0.206 0,0.305 -0.195,0.305 -0.044,0 -0.066,0 -0.489,-0.207 -0.283,0.141 -0.663,0.207 -1.096,0.207 -0.326,0 -1.996,0 -1.996,-1.422 0,-0.435 0.217,-0.727 0.434,-0.911 0.433,-0.38 0.845,-0.445 1.681,-0.597 0.391,-0.066 1.205,-0.206 1.205,-0.847 0,-0.814 -0.999,-0.814 -1.238,-0.814 -1.15,0 -1.431,0.792 -1.562,1.259 -0.055,0.152 -0.108,0.152 -0.26,0.152 -0.26,0 -0.26,-0.066 -0.26,-0.314 l 0,-1.183 c 0,-0.206 0,-0.305 0.195,-0.305 0.075,0 0.097,0 0.325,0.163 l 0.283,0.186 c 0.498,-0.349 1.062,-0.349 1.279,-0.349 0.336,0 2.008,0 2.008,1.585"
         style="fill:#000000;fill-opacity:1;fill-rule:nonzero;stroke:none"
         id="path3191"
         inkscape:connector-curvature="0" /><path
         d="m 126.04112,474.06222 c 0,1.084 -0.716,1.975 -1.626,2.19 l -1.39,0.338 c -0.673,0.162 -1.096,0.748 -1.096,1.378 0,0.759 0.586,1.42 1.432,1.42 1.813,0 2.05,-1.779 2.116,-2.267 0.011,-0.065 0.011,-0.13 0.13,-0.13 0.142,0 0.142,0.054 0.142,0.26 l 0,2.181 c 0,0.184 0,0.261 -0.12,0.261 -0.075,0 -0.086,-0.011 -0.163,-0.141 l -0.38,-0.618 c -0.325,0.314 -0.77,0.759 -1.736,0.759 -1.204,0 -2.115,-0.955 -2.115,-2.105 0,-0.901 0.575,-1.693 1.422,-1.986 0.118,-0.043 0.672,-0.173 1.431,-0.357 0.294,-0.077 0.619,-0.154 0.923,-0.555 0.227,-0.281 0.336,-0.639 0.336,-0.997 0,-0.772 -0.542,-1.553 -1.454,-1.553 -0.314,0 -1.139,0.055 -1.714,0.586 -0.63,0.586 -0.663,1.281 -0.674,1.672 -0.009,0.108 -0.097,0.108 -0.13,0.108 -0.14,0 -0.14,-0.075 -0.14,-0.271 l 0,-2.17 c 0,-0.184 0,-0.261 0.119,-0.261 0.076,0 0.087,0.022 0.162,0.142 0,0 0.033,0.042 0.391,0.617 0.337,-0.368 1.031,-0.759 1.997,-0.759 1.27,0 2.137,1.064 2.137,2.258"
         style="fill:#000000;fill-opacity:1;fill-rule:nonzero;stroke:none"
         id="path3193"
         inkscape:connector-curvature="0" /><path
         d="m 130.33012,473.38822 0,0.619 -0.272,0 0,-0.597 c 0,-0.803 -0.325,-1.215 -0.726,-1.215 -0.728,0 -0.728,0.987 -0.728,1.171 l 0,3.018 1.551,0 0,0.336 -1.551,0 0,1.996 -0.271,0 c -0.011,-0.89 -0.337,-2.051 -1.4,-2.093 l 0,-0.239 0.922,0 0,-2.996 c 0,-1.334 1.01,-1.464 1.4,-1.464 0.77,0 1.075,0.771 1.075,1.464"
         style="fill:#000000;fill-opacity:1;fill-rule:nonzero;stroke:none"
         id="path3195"
         inkscape:connector-curvature="0" /><path
         d="m 136.16812,473.00922 0,0.607 -0.271,0 0,-0.607 c 0,-0.63 -0.272,-0.694 -0.39,-0.694 -0.36,0 -0.402,0.487 -0.402,0.542 l 0,2.17 c 0,0.455 0,0.879 -0.39,1.28 -0.424,0.424 -0.966,0.597 -1.488,0.597 -0.889,0 -1.637,-0.509 -1.637,-1.227 0,-0.325 0.215,-0.509 0.498,-0.509 0.303,0 0.498,0.217 0.498,0.498 0,0.132 -0.053,0.49 -0.553,0.5 0.294,0.38 0.825,0.499 1.172,0.499 0.533,0 1.15,-0.424 1.15,-1.389 l 0,-0.402 c -0.553,-0.031 -1.312,-0.064 -1.995,-0.39 -0.814,-0.369 -1.086,-0.933 -1.086,-1.41 0,-0.879 1.053,-1.15 1.736,-1.15 0.717,0 1.215,0.433 1.422,0.944 0.043,-0.434 0.336,-0.891 0.847,-0.891 0.228,0 0.889,0.154 0.889,1.032 z m -1.813,0.553 c 0,-1.031 -0.781,-1.4 -1.269,-1.4 -0.531,0 -0.976,0.379 -0.976,0.923 0,0.597 0.456,1.497 2.245,1.563 l 0,-1.086"
         style="fill:#000000;fill-opacity:1;fill-rule:nonzero;stroke:none"
         id="path3197"
         inkscape:connector-curvature="0" /><path
         d="m 140.03012,473.38822 0,0.619 -0.272,0 0,-0.597 c 0,-0.803 -0.325,-1.215 -0.726,-1.215 -0.728,0 -0.728,0.987 -0.728,1.171 l 0,3.018 1.551,0 0,0.336 -1.551,0 0,1.996 -0.271,0 c -0.011,-0.89 -0.337,-2.051 -1.4,-2.093 l 0,-0.239 0.922,0 0,-2.996 c 0,-1.334 1.01,-1.464 1.4,-1.464 0.77,0 1.075,0.771 1.075,1.464"
         style="fill:#000000;fill-opacity:1;fill-rule:nonzero;stroke:none"
         id="path3199"
         inkscape:connector-curvature="0" /><path
         d="m 143.30712,472.04322 0,0.336 c -0.716,0 -0.76,0.055 -0.76,0.478 l 0,3.981 -1.518,-0.118 0,-0.336 c 0.704,0 0.803,-0.066 0.803,-0.597 l 0,-2.919 c 0,-0.489 -0.121,-0.489 -0.847,-0.489 l 0,-0.336 1.194,0.033 c 0.379,0 0.759,-0.022 1.128,-0.033 z m -0.597,6.553 c 0,0.294 -0.249,0.575 -0.575,0.575 -0.369,0 -0.586,-0.303 -0.586,-0.575 0,-0.292 0.25,-0.575 0.575,-0.575 0.369,0 0.586,0.305 0.586,0.575"
         style="fill:#000000;fill-opacity:1;fill-rule:nonzero;stroke:none"
         id="path3201"
         inkscape:connector-curvature="0" /><path
         d="m 148.23012,473.33422 c 0,0.109 -0.109,0.109 -0.14,0.109 -0.099,0 -0.121,-0.044 -0.143,-0.109 -0.314,-1.008 -1.018,-1.139 -1.42,-1.139 -0.575,0 -1.531,0.467 -1.531,2.214 0,1.768 0.89,2.223 1.465,2.223 0.097,0 0.782,-0.009 1.161,-0.4 -0.445,-0.033 -0.509,-0.359 -0.509,-0.5 0,-0.281 0.195,-0.498 0.498,-0.498 0.283,0 0.5,0.184 0.5,0.509 0,0.738 -0.825,1.161 -1.661,1.161 -1.356,0 -2.354,-1.172 -2.354,-2.517 0,-1.389 1.075,-2.463 2.333,-2.463 1.454,0 1.801,1.302 1.801,1.41"
         style="fill:#000000;fill-opacity:1;fill-rule:nonzero;stroke:none"
         id="path3203"
         inkscape:connector-curvature="0" /><path
         d="m 176.33812,475.80922 c 0,0.217 -0.206,0.217 -0.358,0.217 l -4.611,0 0,3.189 c 0,0.151 0,0.358 -0.217,0.358 -0.217,0 -0.217,-0.216 -0.217,-0.369 l 0,-6.792 c 0,-0.152 0,-0.369 0.217,-0.369 0.217,0 0.217,0.206 0.217,0.358 l 0,3.19 4.611,0 c 0.152,0 0.358,0 0.358,0.218"
         style="fill:#000000;fill-opacity:1;fill-rule:nonzero;stroke:none"
         id="path3205"
         inkscape:connector-curvature="0" /><path
         d="m 185.26012,469.44922 c 0,0.11 -0.064,0.11 -0.174,0.121 -0.856,0.053 -1.257,0.542 -1.356,0.932 -0.033,0.119 -0.033,0.141 -0.033,0.521 l 0,1.628 c 0,0.325 0,0.878 -0.022,0.987 -0.14,0.716 -0.834,0.999 -1.257,1.118 1.279,0.368 1.279,1.139 1.279,1.443 l 0,1.953 c 0,0.782 0,1.019 0.261,1.291 0.196,0.195 0.446,0.456 1.205,0.5 0.053,0.009 0.097,0.053 0.097,0.119 0,0.119 -0.086,0.119 -0.217,0.119 -1.085,0 -2.05,-0.554 -2.072,-1.335 l 0,-1.986 c 0,-1.019 0,-1.194 -0.283,-1.497 -0.152,-0.151 -0.444,-0.445 -1.128,-0.489 -0.075,0 -0.152,-0.009 -0.152,-0.118 0,-0.108 0.066,-0.108 0.174,-0.119 0.467,-0.033 1.389,-0.261 1.389,-1.346 l 0,-2.148 c 0,-0.63 0,-0.998 0.564,-1.4 0.467,-0.327 1.172,-0.412 1.508,-0.412 0.131,0 0.217,0 0.217,0.118"
         style="fill:#000000;fill-opacity:1;fill-rule:nonzero;stroke:none"
         id="path3207"
         inkscape:connector-curvature="0" /><path
         d="m 192.34412,474.88522 c 0,0.858 -0.575,1.856 -2.083,1.964 l 0.608,2.464 0.033,0.152 c 0,0 0,0.108 -0.131,0.108 -0.108,0 -0.119,-0.032 -0.163,-0.216 l -0.629,-2.508 c -1.725,-0.053 -3.321,-1.497 -3.321,-2.972 0,-1.031 0.76,-1.889 2.085,-1.964 l -0.25,-1.02 c -0.13,-0.509 -0.239,-0.922 -0.239,-0.955 0,-0.109 0.076,-0.12 0.129,-0.12 0.055,0 0.077,0.011 0.11,0.044 0.022,0.022 0.086,0.283 0.118,0.434 l 0.413,1.617 c 1.747,0.053 3.32,1.519 3.32,2.972 z m -2.429,1.727 -1.119,-4.461 c -0.65,0.033 -1.431,0.412 -1.431,1.498 0,1.302 0.932,2.821 2.55,2.963 z m 1.725,-1.499 c 0,-1.279 -0.933,-2.831 -2.561,-2.962 l 1.117,4.461 c 0.825,-0.044 1.444,-0.544 1.444,-1.499"
         style="fill:#000000;fill-opacity:1;fill-rule:nonzero;stroke:none"
         id="path3209"
         inkscape:connector-curvature="0" /><path
         d="m 197.26012,474.75622 c 0,0.109 -0.064,0.109 -0.174,0.118 -0.465,0.033 -1.389,0.261 -1.389,1.347 l 0,2.149 c 0,0.628 0,0.996 -0.564,1.398 -0.465,0.316 -1.161,0.413 -1.508,0.413 -0.109,0 -0.217,0 -0.217,-0.119 0,-0.11 0.066,-0.11 0.174,-0.119 0.858,-0.055 1.259,-0.544 1.356,-0.934 0.033,-0.119 0.033,-0.141 0.033,-0.521 l 0,-1.628 c 0,-0.325 0,-0.878 0.022,-0.987 0.14,-0.716 0.836,-0.999 1.257,-1.117 -1.279,-0.369 -1.279,-1.14 -1.279,-1.444 l 0,-1.952 c 0,-0.781 0,-1.02 -0.261,-1.292 -0.195,-0.195 -0.444,-0.456 -1.205,-0.498 -0.053,-0.011 -0.097,-0.055 -0.097,-0.121 0,-0.118 0.108,-0.118 0.217,-0.118 1.085,0 2.05,0.553 2.072,1.334 l 0,1.986 c 0,1.02 0,1.194 0.283,1.497 0.152,0.151 0.445,0.445 1.128,0.489 0.077,0 0.152,0.011 0.152,0.119"
         style="fill:#000000;fill-opacity:1;fill-rule:nonzero;stroke:none"
         id="path3211"
         inkscape:connector-curvature="0" /><path
         d="m 206.02412,473.72422 c 0,0.391 -0.206,0.663 -0.336,0.792 -0.294,0.305 -0.608,0.358 -1.086,0.457 -0.391,0.087 -0.825,0.162 -0.825,0.651 0,0.314 0.261,0.977 1.216,0.977 0.272,0 0.814,-0.077 0.976,-0.5 -0.303,-0.011 -0.52,-0.25 -0.52,-0.488 0,-0.153 0.097,-0.315 0.336,-0.315 0.239,0 0.5,0.184 0.5,0.608 0,0.489 -0.467,0.932 -1.292,0.932 -1.432,0 -1.833,-1.106 -1.833,-1.582 0,-0.847 0.803,-1.01 1.117,-1.075 0.564,-0.108 1.128,-0.229 1.128,-0.825 0,-0.282 -0.25,-1.194 -1.551,-1.194 -0.152,0 -0.988,0 -1.238,0.575 0.413,-0.053 0.684,0.272 0.684,0.575 0,0.25 -0.173,0.381 -0.401,0.381 -0.283,0 -0.608,-0.228 -0.608,-0.717 0,-0.619 0.619,-1.052 1.552,-1.052 1.757,0 2.181,1.313 2.181,1.8"
         style="fill:#000000;fill-opacity:1;fill-rule:nonzero;stroke:none"
         id="path3213"
         inkscape:connector-curvature="0" /><path
         d="m 215.06012,469.44922 c 0,0.11 -0.064,0.11 -0.174,0.121 -0.856,0.053 -1.257,0.542 -1.356,0.932 -0.033,0.119 -0.033,0.141 -0.033,0.521 l 0,1.628 c 0,0.325 0,0.878 -0.022,0.987 -0.14,0.716 -0.834,0.999 -1.257,1.118 1.279,0.368 1.279,1.139 1.279,1.443 l 0,1.953 c 0,0.782 0,1.019 0.261,1.291 0.196,0.195 0.446,0.456 1.205,0.5 0.053,0.009 0.097,0.053 0.097,0.119 0,0.119 -0.086,0.119 -0.217,0.119 -1.085,0 -2.05,-0.554 -2.072,-1.335 l 0,-1.986 c 0,-1.019 0,-1.194 -0.283,-1.497 -0.152,-0.151 -0.444,-0.445 -1.128,-0.489 -0.075,0 -0.152,-0.009 -0.152,-0.118 0,-0.108 0.066,-0.108 0.174,-0.119 0.467,-0.033 1.389,-0.261 1.389,-1.346 l 0,-2.148 c 0,-0.63 0,-0.998 0.564,-1.4 0.467,-0.327 1.172,-0.412 1.508,-0.412 0.131,0 0.217,0 0.217,0.118"
         style="fill:#000000;fill-opacity:1;fill-rule:nonzero;stroke:none"
         id="path3215"
         inkscape:connector-curvature="0" /><path
         d="m 222.14412,474.88522 c 0,0.858 -0.575,1.856 -2.083,1.964 l 0.608,2.464 0.033,0.152 c 0,0 0,0.108 -0.131,0.108 -0.108,0 -0.119,-0.032 -0.163,-0.216 l -0.629,-2.508 c -1.725,-0.053 -3.321,-1.497 -3.321,-2.972 0,-1.031 0.76,-1.889 2.085,-1.964 l -0.25,-1.02 c -0.13,-0.509 -0.239,-0.922 -0.239,-0.955 0,-0.109 0.076,-0.12 0.129,-0.12 0.055,0 0.077,0.011 0.11,0.044 0.022,0.022 0.086,0.283 0.118,0.434 l 0.413,1.617 c 1.747,0.053 3.32,1.519 3.32,2.972 z m -2.429,1.727 -1.119,-4.461 c -0.65,0.033 -1.431,0.412 -1.431,1.498 0,1.302 0.932,2.821 2.55,2.963 z m 1.725,-1.499 c 0,-1.279 -0.933,-2.831 -2.561,-2.962 l 1.117,4.461 c 0.825,-0.044 1.444,-0.544 1.444,-1.499"
         style="fill:#000000;fill-opacity:1;fill-rule:nonzero;stroke:none"
         id="path3217"
         inkscape:connector-curvature="0" /><path
         d="m 227.06012,474.75622 c 0,0.109 -0.064,0.109 -0.174,0.118 -0.465,0.033 -1.389,0.261 -1.389,1.347 l 0,2.149 c 0,0.628 0,0.996 -0.564,1.398 -0.465,0.316 -1.161,0.413 -1.508,0.413 -0.109,0 -0.217,0 -0.217,-0.119 0,-0.11 0.066,-0.11 0.174,-0.119 0.858,-0.055 1.259,-0.544 1.356,-0.934 0.033,-0.119 0.033,-0.141 0.033,-0.521 l 0,-1.628 c 0,-0.325 0,-0.878 0.022,-0.987 0.14,-0.716 0.836,-0.999 1.257,-1.117 -1.279,-0.369 -1.279,-1.14 -1.279,-1.444 l 0,-1.952 c 0,-0.781 0,-1.02 -0.261,-1.292 -0.195,-0.195 -0.444,-0.456 -1.205,-0.498 -0.053,-0.011 -0.097,-0.055 -0.097,-0.121 0,-0.118 0.108,-0.118 0.217,-0.118 1.085,0 2.05,0.553 2.072,1.334 l 0,1.986 c 0,1.02 0,1.194 0.283,1.497 0.152,0.151 0.445,0.445 1.128,0.489 0.077,0 0.152,0.011 0.152,0.119"
         style="fill:#000000;fill-opacity:1;fill-rule:nonzero;stroke:none"
         id="path3219"
         inkscape:connector-curvature="0" /><path
         d="m 128.29912,459.08822 c 0,2.063 -1.466,3.766 -3.32,3.766 l -3.972,0 0,-0.336 0.261,0 c 0.834,0 0.856,-0.12 0.856,-0.511 l 0,-5.717 c 0,-0.391 -0.022,-0.511 -0.856,-0.511 l -0.261,0 0,-0.336 3.972,0 c 1.821,0 3.32,1.606 3.32,3.645 z m -1.086,0 c 0,-1.204 -0.206,-1.854 -0.597,-2.386 -0.217,-0.293 -0.834,-0.923 -1.931,-0.923 l -1.095,0 c -0.511,0 -0.532,0.077 -0.532,0.434 l 0,5.871 c 0,0.357 0.021,0.434 0.532,0.434 l 1.084,0 c 0.673,0 1.422,-0.239 1.975,-1.009 0.467,-0.641 0.564,-1.574 0.564,-2.421"
         style="fill:#000000;fill-opacity:1;fill-rule:nonzero;stroke:none"
         id="path3221"
         inkscape:connector-curvature="0" /><path
         d="m 134.54012,459.78422 0,0.336 c -0.25,-0.022 -0.565,-0.033 -0.815,-0.033 l -0.943,0.033 0,-0.336 c 0.336,-0.011 0.509,-0.196 0.509,-0.468 0,-0.107 -0.011,-0.129 -0.066,-0.26 l -1.095,-2.669 -1.205,2.919 c -0.043,0.109 -0.064,0.151 -0.064,0.195 0,0.283 0.402,0.283 0.607,0.283 l 0,0.336 -1.182,-0.033 c -0.293,0 -0.728,0.011 -1.053,0.033 l 0,-0.336 c 0.521,0 0.727,0 0.878,-0.38 l 1.629,-3.961 -0.272,-0.641 c -0.238,-0.596 -0.543,-1.345 -1.236,-1.345 -0.055,0 -0.305,0 -0.511,0.195 0.337,0.044 0.423,0.283 0.423,0.457 0,0.281 -0.206,0.456 -0.454,0.456 -0.218,0 -0.457,-0.142 -0.457,-0.467 0,-0.489 0.457,-0.88 0.999,-0.88 0.683,0 1.128,0.619 1.389,1.238 l 1.909,4.632 c 0.281,0.685 0.836,0.696 1.01,0.696"
         style="fill:#000000;fill-opacity:1;fill-rule:nonzero;stroke:none"
         id="path3223"
         inkscape:connector-curvature="0" /><path
         d="m 140.53212,455.44322 0,0.336 c -0.564,0 -0.835,0 -0.846,0.327 l 0,2.071 c 0,0.933 0,1.269 -0.337,1.66 -0.152,0.186 -0.509,0.401 -1.139,0.401 -0.792,0 -1.302,-0.465 -1.606,-1.139 l 0,1.139 -1.53,-0.118 0,-0.336 c 0.759,0 0.847,-0.077 0.847,-0.608 l 0,-2.908 c 0,-0.489 -0.121,-0.489 -0.847,-0.489 l 0,-0.336 1.226,0.033 1.216,-0.033 0,0.336 c -0.728,0 -0.847,0 -0.847,0.489 l 0,1.997 c 0,1.128 0.771,1.736 1.466,1.736 0.683,0 0.801,-0.586 0.801,-1.205 l 0,-2.528 c 0,-0.489 -0.118,-0.489 -0.845,-0.489 l 0,-0.336 1.225,0.033 1.216,-0.033"
         style="fill:#000000;fill-opacity:1;fill-rule:nonzero;stroke:none"
         id="path3225"
         inkscape:connector-curvature="0" /><path
         d="m 146.06812,456.40922 0,0.607 -0.271,0 0,-0.607 c 0,-0.63 -0.272,-0.694 -0.39,-0.694 -0.36,0 -0.402,0.487 -0.402,0.542 l 0,2.17 c 0,0.455 0,0.879 -0.39,1.28 -0.424,0.424 -0.966,0.597 -1.488,0.597 -0.889,0 -1.637,-0.509 -1.637,-1.227 0,-0.325 0.215,-0.509 0.498,-0.509 0.303,0 0.498,0.217 0.498,0.498 0,0.132 -0.053,0.49 -0.553,0.5 0.294,0.38 0.825,0.499 1.172,0.499 0.533,0 1.15,-0.424 1.15,-1.389 l 0,-0.402 c -0.553,-0.031 -1.312,-0.064 -1.995,-0.39 -0.814,-0.369 -1.086,-0.933 -1.086,-1.41 0,-0.879 1.053,-1.15 1.736,-1.15 0.717,0 1.215,0.433 1.422,0.944 0.043,-0.434 0.336,-0.891 0.847,-0.891 0.228,0 0.889,0.154 0.889,1.032 z m -1.813,0.553 c 0,-1.031 -0.781,-1.4 -1.269,-1.4 -0.531,0 -0.976,0.379 -0.976,0.923 0,0.597 0.456,1.497 2.245,1.563 l 0,-1.086"
         style="fill:#000000;fill-opacity:1;fill-rule:nonzero;stroke:none"
         id="path3227"
         inkscape:connector-curvature="0" /><path
         d="m 155.04912,455.44322 0,0.336 c -0.564,0 -0.836,0 -0.847,0.327 l 0,2.071 c 0,0.933 0,1.269 -0.336,1.66 -0.151,0.186 -0.511,0.401 -1.139,0.401 -0.912,0 -1.389,-0.65 -1.573,-1.062 -0.152,0.944 -0.955,1.062 -1.444,1.062 -0.792,0 -1.302,-0.465 -1.606,-1.139 l 0,1.139 -1.53,-0.118 0,-0.336 c 0.759,0 0.847,-0.077 0.847,-0.608 l 0,-2.908 c 0,-0.489 -0.121,-0.489 -0.847,-0.489 l 0,-0.336 1.226,0.033 1.216,-0.033 0,0.336 c -0.728,0 -0.847,0 -0.847,0.489 l 0,1.997 c 0,1.128 0.771,1.736 1.466,1.736 0.683,0 0.801,-0.586 0.801,-1.205 l 0,-2.528 c 0,-0.489 -0.118,-0.489 -0.845,-0.489 l 0,-0.336 1.225,0.033 1.216,-0.033 0,0.336 c -0.727,0 -0.846,0 -0.846,0.489 l 0,1.997 c 0,1.128 0.771,1.736 1.464,1.736 0.685,0 0.804,-0.586 0.804,-1.205 l 0,-2.528 c 0,-0.489 -0.119,-0.489 -0.847,-0.489 l 0,-0.336 1.226,0.033 1.216,-0.033"
         style="fill:#000000;fill-opacity:1;fill-rule:nonzero;stroke:none"
         id="path3229"
         inkscape:connector-curvature="0" /><path
         d="m 158.00712,455.44322 0,0.336 c -0.716,0 -0.76,0.055 -0.76,0.478 l 0,3.981 -1.518,-0.118 0,-0.336 c 0.704,0 0.803,-0.066 0.803,-0.597 l 0,-2.919 c 0,-0.489 -0.121,-0.489 -0.847,-0.489 l 0,-0.336 1.194,0.033 c 0.379,0 0.759,-0.022 1.128,-0.033 z m -0.597,6.553 c 0,0.294 -0.249,0.575 -0.575,0.575 -0.369,0 -0.586,-0.303 -0.586,-0.575 0,-0.292 0.25,-0.575 0.575,-0.575 0.369,0 0.586,0.305 0.586,0.575"
         style="fill:#000000;fill-opacity:1;fill-rule:nonzero;stroke:none"
         id="path3231"
         inkscape:connector-curvature="0" /><path
         d="m 162.93012,456.73422 c 0,0.109 -0.109,0.109 -0.14,0.109 -0.099,0 -0.121,-0.044 -0.143,-0.109 -0.314,-1.008 -1.018,-1.139 -1.42,-1.139 -0.575,0 -1.531,0.467 -1.531,2.214 0,1.768 0.89,2.223 1.465,2.223 0.097,0 0.782,-0.009 1.161,-0.4 -0.445,-0.033 -0.509,-0.359 -0.509,-0.5 0,-0.281 0.195,-0.498 0.498,-0.498 0.283,0 0.5,0.184 0.5,0.509 0,0.738 -0.825,1.161 -1.661,1.161 -1.356,0 -2.354,-1.172 -2.354,-2.517 0,-1.389 1.075,-2.463 2.333,-2.463 1.454,0 1.801,1.302 1.801,1.41"
         style="fill:#000000;fill-opacity:1;fill-rule:nonzero;stroke:none"
         id="path3233"
         inkscape:connector-curvature="0" /><path
         d="m 176.67912,459.85922 c 0,0.261 -0.227,0.261 -0.433,0.261 l -3.636,0 c -0.238,0 -0.65,0 -1.128,-0.51 -0.38,-0.423 -0.663,-0.923 -0.663,-0.976 0,0 0,-0.11 0.131,-0.11 0.086,0 0.108,0.044 0.174,0.132 0.531,0.834 1.161,0.834 1.378,0.834 l 0.619,0 c -0.349,-1.313 -0.935,-2.625 -1.389,-3.613 -0.088,-0.162 -0.088,-0.184 -0.088,-0.261 0,-0.206 0.174,-0.292 0.316,-0.292 0.325,0 0.412,0.303 0.542,0.705 0.152,0.498 0.152,0.52 0.292,1.064 l 0.608,2.397 1.227,0 c -0.358,-1.606 -0.457,-2.072 -0.457,-2.799 0,-0.164 0,-0.456 0.088,-0.825 0.108,-0.478 0.228,-0.542 0.39,-0.542 0.218,0 0.446,0.196 0.446,0.411 0,0.066 0,0.088 -0.066,0.239 -0.314,0.782 -0.314,1.488 -0.314,1.791 0,0.575 0.075,1.161 0.195,1.725 l 1.236,0 c 0.141,0 0.532,0 0.532,0.369"
         style="fill:#000000;fill-opacity:1;fill-rule:nonzero;stroke:none"
         id="path3235"
         inkscape:connector-curvature="0" /><path
         d="m 188.25712,458.15622 c 0,0.217 -0.207,0.217 -0.358,0.217 l -5.913,0 c -0.153,0 -0.359,0 -0.359,-0.217 0,-0.218 0.206,-0.218 0.359,-0.218 l 5.913,0 c 0.151,0 0.358,0 0.358,0.218"
         style="fill:#000000;fill-opacity:1;fill-rule:nonzero;stroke:none"
         id="path3237"
         inkscape:connector-curvature="0" /><path
         d="m 197.66012,458.15622 c 0,0.054 -0.044,0.098 -0.088,0.109 -1.161,0.411 -2.018,1.409 -2.225,2.625 -0.011,0.055 -0.064,0.098 -0.118,0.098 l -0.196,0 c -0.065,0 -0.118,-0.054 -0.118,-0.142 0.173,-0.998 0.737,-1.887 1.551,-2.473 l -8.214,0 c -0.152,0 -0.228,-0.108 -0.228,-0.217 0,-0.108 0.076,-0.218 0.228,-0.218 l 8.214,0 c -0.814,-0.586 -1.378,-1.475 -1.551,-2.473 0,-0.088 0.053,-0.141 0.118,-0.141 l 0.196,0 c 0.054,0 0.107,0.042 0.118,0.097 0.207,1.216 1.064,2.214 2.225,2.627 0.044,0.011 0.088,0.053 0.088,0.108"
         style="fill:#000000;fill-opacity:1;fill-rule:nonzero;stroke:none"
         id="path3239"
         inkscape:connector-curvature="0" /><path
         d="m 208.57912,459.85922 c 0,0.261 -0.227,0.261 -0.433,0.261 l -3.636,0 c -0.238,0 -0.65,0 -1.128,-0.51 -0.38,-0.423 -0.663,-0.923 -0.663,-0.976 0,0 0,-0.11 0.131,-0.11 0.086,0 0.108,0.044 0.174,0.132 0.531,0.834 1.161,0.834 1.378,0.834 l 0.619,0 c -0.349,-1.313 -0.935,-2.625 -1.389,-3.613 -0.088,-0.162 -0.088,-0.184 -0.088,-0.261 0,-0.206 0.174,-0.292 0.316,-0.292 0.325,0 0.412,0.303 0.542,0.705 0.152,0.498 0.152,0.52 0.292,1.064 l 0.608,2.397 1.227,0 c -0.358,-1.606 -0.457,-2.072 -0.457,-2.799 0,-0.164 0,-0.456 0.088,-0.825 0.108,-0.478 0.228,-0.542 0.39,-0.542 0.218,0 0.446,0.196 0.446,0.411 0,0.066 0,0.088 -0.066,0.239 -0.314,0.782 -0.314,1.488 -0.314,1.791 0,0.575 0.075,1.161 0.195,1.725 l 1.236,0 c 0.141,0 0.532,0 0.532,0.369"
         style="fill:#000000;fill-opacity:1;fill-rule:nonzero;stroke:none"
         id="path3241"
         inkscape:connector-curvature="0" /><path
         d="m 127.24612,443.88122 -0.303,2.44 -5.958,0 0,-0.336 0.261,0 c 0.836,0 0.856,-0.119 0.856,-0.509 l 0,-5.686 c 0,-0.391 -0.02,-0.511 -0.856,-0.511 l -0.261,0 0,-0.336 c 0.38,0.033 1.226,0.033 1.65,0.033 0.444,0 1.431,0 1.822,-0.033 l 0,0.336 -0.358,0 c -1.031,0 -1.031,0.142 -1.031,0.522 l 0,2.669 0.934,0 c 1.041,0 1.15,-0.347 1.15,-1.271 l 0.27,0 0,2.877 -0.27,0 c 0,-0.913 -0.109,-1.27 -1.15,-1.27 l -0.934,0 0,2.745 c 0,0.358 0.022,0.434 0.532,0.434 l 1.302,0 c 1.628,0 1.898,-0.608 2.072,-2.104 l 0.272,0"
         style="fill:#000000;fill-opacity:1;fill-rule:nonzero;stroke:none"
         id="path3243"
         inkscape:connector-curvature="0" /><path
         d="m 131.93812,441.26522 c 0,1.389 -1.086,2.539 -2.398,2.539 -1.357,0 -2.41,-1.183 -2.41,-2.539 0,-1.4 1.13,-2.441 2.399,-2.441 1.312,0 2.409,1.063 2.409,2.441 z m -0.902,0.087 c 0,-0.39 0,-0.976 -0.237,-1.454 -0.239,-0.488 -0.717,-0.803 -1.259,-0.803 -0.468,0 -0.944,0.228 -1.238,0.726 -0.27,0.478 -0.27,1.141 -0.27,1.531 0,0.422 0,1.008 0.259,1.486 0.294,0.499 0.803,0.727 1.238,0.727 0.478,0 0.943,-0.238 1.226,-0.705 0.281,-0.467 0.281,-1.095 0.281,-1.508"
         style="fill:#000000;fill-opacity:1;fill-rule:nonzero;stroke:none"
         id="path3245"
         inkscape:connector-curvature="0" /><path
         d="m 136.27712,443.07722 c 0,0.347 -0.337,0.661 -0.803,0.661 -0.792,0 -1.183,-0.726 -1.334,-1.192 l 0,1.192 -1.51,-0.118 0,-0.336 c 0.761,0 0.847,-0.077 0.847,-0.608 l 0,-2.908 c 0,-0.489 -0.119,-0.489 -0.847,-0.489 l 0,-0.336 1.238,0.033 c 0.434,0 0.943,0 1.378,-0.033 l 0,0.336 -0.228,0 c -0.803,0 -0.825,0.12 -0.825,0.511 l 0,1.67 c 0,1.075 0.456,2.041 1.281,2.041 0.075,0 0.097,0 0.119,-0.011 -0.033,-0.011 -0.249,-0.142 -0.249,-0.424 0,-0.304 0.227,-0.467 0.466,-0.467 0.195,0 0.467,0.132 0.467,0.478"
         style="fill:#000000;fill-opacity:1;fill-rule:nonzero;stroke:none"
         id="path3247"
         inkscape:connector-curvature="0" /><path
         d="m 145.44912,438.94322 0,0.336 c -0.564,0 -0.836,0 -0.847,0.327 l 0,2.071 c 0,0.933 0,1.269 -0.336,1.66 -0.151,0.186 -0.511,0.401 -1.139,0.401 -0.912,0 -1.389,-0.65 -1.573,-1.062 -0.152,0.944 -0.955,1.062 -1.444,1.062 -0.792,0 -1.302,-0.465 -1.606,-1.139 l 0,1.139 -1.53,-0.118 0,-0.336 c 0.759,0 0.847,-0.077 0.847,-0.608 l 0,-2.908 c 0,-0.489 -0.121,-0.489 -0.847,-0.489 l 0,-0.336 1.226,0.033 1.216,-0.033 0,0.336 c -0.728,0 -0.847,0 -0.847,0.489 l 0,1.997 c 0,1.128 0.771,1.736 1.466,1.736 0.683,0 0.801,-0.586 0.801,-1.205 l 0,-2.528 c 0,-0.489 -0.118,-0.489 -0.845,-0.489 l 0,-0.336 1.225,0.033 1.216,-0.033 0,0.336 c -0.727,0 -0.846,0 -0.846,0.489 l 0,1.997 c 0,1.128 0.771,1.736 1.464,1.736 0.685,0 0.804,-0.586 0.804,-1.205 l 0,-2.528 c 0,-0.489 -0.119,-0.489 -0.847,-0.489 l 0,-0.336 1.226,0.033 1.216,-0.033"
         style="fill:#000000;fill-opacity:1;fill-rule:nonzero;stroke:none"
         id="path3249"
         inkscape:connector-curvature="0" /><path
         d="m 151.23212,438.94322 0,0.336 c -0.76,0 -0.846,0.077 -0.846,0.608 l 0,3.851 -1.595,-0.118 0,-0.336 c 0.759,0 0.845,-0.077 0.845,-0.608 l 0,-1.931 c 0,-0.944 -0.52,-1.683 -1.312,-1.683 -0.911,0 -0.955,0.511 -0.955,1.075 l 0,3.601 -1.595,-0.118 0,-0.336 c 0.847,0 0.847,-0.033 0.847,-0.999 l 0,-1.628 c 0,-0.845 0,-1.833 1.648,-1.833 0.608,0 1.086,0.303 1.4,0.977 l 0,-0.977 1.563,0.119"
         style="fill:#000000;fill-opacity:1;fill-rule:nonzero;stroke:none"
         id="path3251"
         inkscape:connector-curvature="0" /><path
         d="m 154.19412,438.94322 0,0.336 c -0.726,0 -0.847,0 -0.847,0.489 l 0,6.705 -1.562,-0.119 0,-0.336 c 0.759,0 0.847,-0.077 0.847,-0.608 l 0,-5.642 c 0,-0.489 -0.121,-0.489 -0.847,-0.489 l 0,-0.336 1.205,0.033 1.204,-0.033"
         style="fill:#000000;fill-opacity:1;fill-rule:nonzero;stroke:none"
         id="path3253"
         inkscape:connector-curvature="0" /><path
         d="m 159.76812,439.90922 0,0.607 -0.271,0 0,-0.607 c 0,-0.63 -0.272,-0.694 -0.39,-0.694 -0.36,0 -0.402,0.487 -0.402,0.542 l 0,2.17 c 0,0.455 0,0.879 -0.39,1.28 -0.424,0.424 -0.966,0.597 -1.488,0.597 -0.889,0 -1.637,-0.509 -1.637,-1.227 0,-0.325 0.215,-0.509 0.498,-0.509 0.303,0 0.498,0.217 0.498,0.498 0,0.132 -0.053,0.49 -0.553,0.5 0.294,0.38 0.825,0.499 1.172,0.499 0.533,0 1.15,-0.424 1.15,-1.389 l 0,-0.402 c -0.553,-0.031 -1.312,-0.064 -1.995,-0.39 -0.814,-0.369 -1.086,-0.933 -1.086,-1.41 0,-0.879 1.053,-1.15 1.736,-1.15 0.717,0 1.215,0.433 1.422,0.944 0.043,-0.434 0.336,-0.891 0.847,-0.891 0.228,0 0.889,0.154 0.889,1.032 z m -1.813,0.553 c 0,-1.031 -0.781,-1.4 -1.269,-1.4 -0.531,0 -0.976,0.379 -0.976,0.923 0,0.597 0.456,1.497 2.245,1.563 l 0,-1.086"
         style="fill:#000000;fill-opacity:1;fill-rule:nonzero;stroke:none"
         id="path3255"
         inkscape:connector-curvature="0" /><path
         d="m 176.97912,443.35922 c 0,0.261 -0.227,0.261 -0.433,0.261 l -3.636,0 c -0.238,0 -0.65,0 -1.128,-0.51 -0.38,-0.423 -0.663,-0.923 -0.663,-0.976 0,0 0,-0.11 0.131,-0.11 0.086,0 0.108,0.044 0.174,0.132 0.531,0.834 1.161,0.834 1.378,0.834 l 0.619,0 c -0.349,-1.313 -0.935,-2.625 -1.389,-3.613 -0.088,-0.162 -0.088,-0.184 -0.088,-0.261 0,-0.206 0.174,-0.292 0.316,-0.292 0.325,0 0.412,0.303 0.542,0.705 0.152,0.498 0.152,0.52 0.292,1.064 l 0.608,2.397 1.227,0 c -0.358,-1.606 -0.457,-2.072 -0.457,-2.799 0,-0.164 0,-0.456 0.088,-0.825 0.108,-0.478 0.228,-0.542 0.39,-0.542 0.218,0 0.446,0.196 0.446,0.411 0,0.066 0,0.088 -0.066,0.239 -0.314,0.782 -0.314,1.488 -0.314,1.791 0,0.575 0.075,1.161 0.195,1.725 l 1.236,0 c 0.141,0 0.532,0 0.532,0.369"
         style="fill:#000000;fill-opacity:1;fill-rule:nonzero;stroke:none"
         id="path3257"
         inkscape:connector-curvature="0" /><path
         d="m 186.75812,441.43822 c 0.185,0 0.38,0 0.38,0.218 0,0.217 -0.206,0.217 -0.391,0.217 l -4.578,0 0,1.67 4.578,0 c 0.185,0 0.391,0 0.391,0.217 0,0.217 -0.195,0.217 -0.38,0.217 l -4.589,0 0,2.116 c 0,0.184 0,0.38 -0.217,0.38 -0.217,0 -0.217,-0.207 -0.217,-0.391 l 0,-6.748 c 0,-0.185 0,-0.391 0.217,-0.391 0.217,0 0.217,0.195 0.217,0.38 l 0,2.115 4.589,0"
         style="fill:#000000;fill-opacity:1;fill-rule:nonzero;stroke:none"
         id="path3259"
         inkscape:connector-curvature="0" /><path
         d="m 197.64412,441.78522 c 0,0.858 -0.575,1.856 -2.083,1.964 l 0.608,2.464 0.033,0.152 c 0,0 0,0.108 -0.131,0.108 -0.108,0 -0.119,-0.032 -0.163,-0.216 l -0.629,-2.508 c -1.725,-0.053 -3.321,-1.497 -3.321,-2.972 0,-1.031 0.76,-1.889 2.085,-1.964 l -0.25,-1.02 c -0.13,-0.509 -0.239,-0.922 -0.239,-0.955 0,-0.109 0.076,-0.12 0.129,-0.12 0.055,0 0.077,0.011 0.11,0.044 0.022,0.022 0.086,0.283 0.118,0.434 l 0.413,1.617 c 1.747,0.053 3.32,1.519 3.32,2.972 z m -2.429,1.727 -1.119,-4.461 c -0.65,0.033 -1.431,0.412 -1.431,1.498 0,1.302 0.932,2.821 2.55,2.963 z m 1.725,-1.499 c 0,-1.279 -0.933,-2.831 -2.561,-2.962 l 1.117,4.461 c 0.825,-0.044 1.444,-0.544 1.444,-1.499"
         style="fill:#000000;fill-opacity:1;fill-rule:nonzero;stroke:none"
         id="path3261"
         inkscape:connector-curvature="0" /></g></g></svg>